<svg width="40" height="40" viewBox="0 0 40 40" fill="none" xmlns="http://www.w3.org/2000/svg">
<path d="M24.0667 31.75L26.6 34.2833L31.6667 29.2167" stroke="#F56A3F" stroke-width="2.5" stroke-linecap="round" stroke-linejoin="round"/>
<path d="M20.2671 18.117C20.1004 18.1003 19.9004 18.1003 19.7171 18.117C15.7504 17.9836 12.6004 14.7336 12.6004 10.7336C12.5837 6.65028 15.9004 3.33362 19.9837 3.33362C24.0671 3.33362 27.3837 6.65028 27.3837 10.7336C27.3837 14.7336 24.2171 17.9836 20.2671 18.117Z" stroke="#F56A3F" stroke-width="2.5" stroke-linecap="round" stroke-linejoin="round"/>
<path d="M19.9832 36.3498C16.9498 36.3498 13.9332 35.5831 11.6332 34.0498C7.59982 31.3498 7.59982 26.9498 11.6332 24.2664C16.2165 21.1998 23.7332 21.1998 28.3165 24.2664" stroke="#F56A3F" stroke-width="2.5" stroke-linecap="round" stroke-linejoin="round"/>
</svg>
