<svg width="15" height="14" viewBox="0 0 15 14" fill="none" xmlns="http://www.w3.org/2000/svg">
<path d="M0.453101 6.57083H11.6552L4.9504 0.870834C4.84319 0.778959 4.90828 0.608334 5.04996 0.608334H6.74434C6.81901 0.608334 6.88985 0.634583 6.94537 0.681458L14.1805 6.82958C14.2468 6.88584 14.2999 6.95538 14.3363 7.03351C14.3728 7.11163 14.3916 7.19651 14.3916 7.2824C14.3916 7.36828 14.3728 7.45316 14.3363 7.53128C14.2999 7.60941 14.2468 7.67896 14.1805 7.73521L6.90325 13.9208C6.87454 13.9452 6.84007 13.9583 6.8037 13.9583H5.05187C4.9102 13.9583 4.8451 13.7858 4.95232 13.6958L11.6552 7.99583H0.453101C0.36886 7.99583 0.299936 7.92833 0.299936 7.84583V6.72083C0.299936 6.63833 0.36886 6.57083 0.453101 6.57083Z" fill="#F56A3F"/>
</svg>
