<svg width="15" height="14" viewBox="0 0 15 14" fill="none" xmlns="http://www.w3.org/2000/svg">
<path d="M14.5469 6.57083H3.34481L10.0496 0.870834C10.1568 0.778959 10.0917 0.608334 9.95004 0.608334H8.25566C8.18099 0.608334 8.11015 0.634583 8.05463 0.681458L0.819504 6.82958C0.753239 6.88584 0.700094 6.95538 0.663671 7.03351C0.627249 7.11163 0.608398 7.19651 0.608398 7.2824C0.608398 7.36828 0.627249 7.45316 0.663671 7.53128C0.700094 7.60941 0.753239 7.67896 0.819504 7.73521L8.09675 13.9208C8.12546 13.9452 8.15993 13.9583 8.1963 13.9583H9.94813C10.0898 13.9583 10.1549 13.7858 10.0477 13.6958L3.34481 7.99583H14.5469C14.6311 7.99583 14.7001 7.92833 14.7001 7.84583V6.72083C14.7001 6.63833 14.6311 6.57083 14.5469 6.57083Z" fill="#F56A3F"/>
</svg>
