<svg width="72" height="72" viewBox="0 0 72 72" fill="none" xmlns="http://www.w3.org/2000/svg">
<path d="M59.8868 14.4V25.1928C59.8868 25.513 59.7596 25.82 59.5333 26.0464C59.3069 26.2728 58.9998 26.4 58.6796 26.4C58.4443 26.3977 58.2144 26.3288 58.0165 26.2014C57.8186 26.074 57.6608 25.8933 57.5612 25.68C55.6106 21.5845 52.5392 18.1256 48.7031 15.7044C44.8669 13.2832 40.4232 11.9988 35.8868 12C23.4428 12 13.2092 21.4728 12.0068 33.6" stroke="#494A59" stroke-width="2.5" stroke-linecap="round" stroke-linejoin="round"/>
<path d="M35.8799 33.6V26.4M47.8799 31.2V43.2C47.8799 44.4731 47.3742 45.694 46.474 46.5941C45.5738 47.4943 44.3529 48 43.0799 48H28.6799C27.4068 48 26.1859 47.4943 25.2858 46.5941C24.3856 45.694 23.8799 44.4731 23.8799 43.2V31.2C23.8799 29.927 24.3856 28.7061 25.2858 27.8059C26.1859 26.9057 27.4068 26.4 28.6799 26.4H43.0799C44.3529 26.4 45.5738 26.9057 46.474 27.8059C47.3742 28.7061 47.8799 29.927 47.8799 31.2Z" stroke="#494A59" stroke-width="2.5" stroke-linecap="round" stroke-linejoin="round"/>
<path d="M12 57.6V46.8072C12 46.14 12.5424 45.6 13.2096 45.6C13.6896 45.6 14.1216 45.8856 14.328 46.32C16.2787 50.415 19.3498 53.8734 23.1854 56.2946C27.021 58.7157 31.4641 60.0005 36 60C48.4464 60 58.68 50.5272 59.8824 38.4" stroke="#494A59" stroke-width="2.5" stroke-linecap="round" stroke-linejoin="round"/>
</svg>
