<svg width="30" height="33" viewBox="0 0 30 33" fill="none" xmlns="http://www.w3.org/2000/svg">
<path d="M20.7793 23.0881V30.0146H2.30881V2.30881H13.8529V0H2.30881C1.69648 0 1.10922 0.243249 0.676236 0.676236C0.243249 1.10922 0 1.69648 0 2.30881V30.0146C0 30.6269 0.243249 31.2142 0.676236 31.6472C1.10922 32.0801 1.69648 32.3234 2.30881 32.3234H20.7793C21.3917 32.3234 21.9789 32.0801 22.4119 31.6472C22.8449 31.2142 23.0881 30.6269 23.0881 30.0146V23.0881H20.7793Z" fill="#383737"/>
<path d="M29.4829 4.34056L25.6733 0.531014C25.3281 0.192585 24.8639 0.00302124 24.3804 0.00302124C23.8969 0.00302124 23.4327 0.192585 23.0875 0.531014L6.92578 16.6927V23.0881H13.3097L29.4713 6.92643C29.8098 6.58116 29.9993 6.11696 29.9993 5.63349C29.9993 5.15002 29.8098 4.68582 29.4713 4.34056H29.4829ZM12.3515 20.7793H9.2346V17.6624L20.1322 6.75327L23.2606 9.88171L12.3515 20.7793ZM24.8884 8.254L21.7599 5.12555L24.3804 2.50505L27.5089 5.63349L24.8884 8.254Z" fill="#383737"/>
</svg>
