<svg width="48" height="48" viewBox="0 0 24 24" fill="none" xmlns="http://www.w3.org/2000/svg">
<path d="M0.652453 0.65215C0.0525951 1.22581 0.000433476 1.46049 0.000433476 3.98983C0.000433476 8.05762 -0.156051 7.95332 5.4774 7.95332C11.1369 7.95332 10.9544 8.0837 10.9544 3.88552C10.9544 -0.104043 11.0848 0.000259399 5.55564 0.000259399C1.35663 0.000259399 1.27839 0.000259399 0.652453 0.65215ZM9.51993 4.04198V6.38878L5.55564 6.46701L1.56528 6.54524V4.04198V1.53872L5.55564 1.61695L9.51993 1.69517V4.04198Z" fill="#494A59"/>
<path d="M13.6109 0.52177C13.0632 1.04328 13.0371 1.22581 13.0371 7.0146C13.0371 12.7252 13.0632 12.9859 13.5848 13.4553C14.0803 13.8986 14.5759 13.9507 18.5662 13.9507C24.4344 13.9507 23.991 14.5244 23.991 6.98852V1.27796L23.339 0.652148C22.7131 0.000257492 22.6348 0.000257492 18.4358 0.000257492C14.5237 0.000257492 14.1325 0.0524092 13.6109 0.52177ZM22.4262 7.04067V12.5426L18.4619 12.4644L14.4716 12.3862L14.3933 7.30143C14.3672 4.51134 14.3933 2.08631 14.4455 1.90378C14.5498 1.64302 15.5669 1.56479 18.5141 1.56479H22.4262V7.04067Z" fill="#494A59"/>
<path d="M1.12147 10.1697C0.104323 10.5869 0 11.2128 0 17.0798V22.7121L0.65202 23.3379C1.27796 23.9898 1.3562 23.9898 5.55521 23.9898C11.3973 23.9898 10.9539 24.5635 10.9539 17.1058C10.9539 9.49176 11.3712 10.0654 5.81602 9.9872C3.54699 9.96112 1.43444 10.0394 1.12147 10.1697ZM9.51949 16.9494V22.2949L5.55521 22.3731L1.56485 22.4513V16.9494V11.4474L5.55521 11.5257L9.51949 11.6039V16.9494Z" fill="#494A59"/>
<path d="M14.3416 16.0889C13.168 16.5322 13.0376 16.9233 13.0376 19.9742C13.0376 24.0941 12.8811 23.9898 18.4363 23.9898C22.6353 23.9898 22.7135 23.9898 23.3395 23.3379C23.9393 22.7643 23.9915 22.5296 23.9915 20.0002C23.9915 15.9846 24.0958 16.0628 18.8536 15.9846C16.5845 15.9585 14.5502 16.0107 14.3416 16.0889ZM22.4266 19.9481V22.4513L18.4624 22.3731L14.472 22.2949L14.3938 20.2349C14.3416 19.0876 14.3677 18.0185 14.4459 17.8099C14.5502 17.5491 15.4631 17.4709 18.5145 17.4709H22.4266V19.9481Z" fill="#494A59"/>
</svg>
