<svg width="28" height="30" viewBox="0 0 28 30" fill="none" xmlns="http://www.w3.org/2000/svg">
<path d="M26.8333 4.61538H21V3.46154C20.9962 2.54465 20.6262 1.6664 19.9706 1.01806C19.3151 0.369712 18.4271 0.00379669 17.5 0H10.5C9.57292 0.00379669 8.68491 0.369712 8.02937 1.01806C7.37382 1.6664 7.00384 2.54465 7 3.46154V4.61538H1.16667C0.857247 4.61538 0.560501 4.73695 0.341709 4.95334C0.122917 5.16973 0 5.46321 0 5.76923C0 6.07525 0.122917 6.36873 0.341709 6.58512C0.560501 6.80151 0.857247 6.92308 1.16667 6.92308H2.33333V27.6923C2.33333 28.3043 2.57917 28.8913 3.01675 29.3241C3.45434 29.7569 4.04783 30 4.66667 30H23.3333C23.9522 30 24.5457 29.7569 24.9832 29.3241C25.4208 28.8913 25.6667 28.3043 25.6667 27.6923V6.92308H26.8333C27.1428 6.92308 27.4395 6.80151 27.6583 6.58512C27.8771 6.36873 28 6.07525 28 5.76923C28 5.46321 27.8771 5.16973 27.6583 4.95334C27.4395 4.73695 27.1428 4.61538 26.8333 4.61538ZM9.33333 3.46154C9.33333 3.15552 9.45625 2.86203 9.67504 2.64565C9.89383 2.42926 10.1906 2.30769 10.5 2.30769H17.5C17.8094 2.30769 18.1062 2.42926 18.325 2.64565C18.5438 2.86203 18.6667 3.15552 18.6667 3.46154V4.61538H9.33333V3.46154ZM23.3333 27.6923H4.66667V6.92308H23.3333V27.6923ZM11.6667 12.6923V21.9231C11.6667 22.2291 11.5437 22.5226 11.325 22.739C11.1062 22.9554 10.8094 23.0769 10.5 23.0769C10.1906 23.0769 9.89383 22.9554 9.67504 22.739C9.45625 22.5226 9.33333 22.2291 9.33333 21.9231V12.6923C9.33333 12.3863 9.45625 12.0928 9.67504 11.8764C9.89383 11.66 10.1906 11.5385 10.5 11.5385C10.8094 11.5385 11.1062 11.66 11.325 11.8764C11.5437 12.0928 11.6667 12.3863 11.6667 12.6923ZM18.6667 12.6923V21.9231C18.6667 22.2291 18.5438 22.5226 18.325 22.739C18.1062 22.9554 17.8094 23.0769 17.5 23.0769C17.1906 23.0769 16.8938 22.9554 16.675 22.739C16.4562 22.5226 16.3333 22.2291 16.3333 21.9231V12.6923C16.3333 12.3863 16.4562 12.0928 16.675 11.8764C16.8938 11.66 17.1906 11.5385 17.5 11.5385C17.8094 11.5385 18.1062 11.66 18.325 11.8764C18.5438 12.0928 18.6667 12.3863 18.6667 12.6923Z" fill="black"/>
</svg>
