<svg width="30" height="30" viewBox="0 0 30 30" fill="none" xmlns="http://www.w3.org/2000/svg">
<path fill-rule="evenodd" clip-rule="evenodd" d="M10.1254 2.8125C10.1254 2.53636 10.3492 2.3125 10.6254 2.3125H19.3754C19.6515 2.3125 19.8754 2.53636 19.8754 2.8125V10.9125H24.8254C25.0262 10.9125 25.2075 11.0326 25.2858 11.2175C25.3641 11.4025 25.3242 11.6163 25.1844 11.7605L20.2782 16.823L15.359 21.8859C15.2648 21.9829 15.1354 22.0375 15.0002 22.0375C14.8651 22.0375 14.7357 21.9827 14.6416 21.8857L4.82259 11.7605C4.68284 11.6163 4.64292 11.4025 4.72121 11.2175C4.79951 11.0326 4.98083 10.9125 5.18164 10.9125H10.1254V2.8125ZM11.1254 3.3125V11.4125C11.1254 11.6886 10.9015 11.9125 10.6254 11.9125H6.36249L15.0006 20.8198L19.5601 16.127L23.6445 11.9125H19.3754C19.0992 11.9125 18.8754 11.6886 18.8754 11.4125V3.3125H11.1254ZM4.46289 24.1562C4.46289 23.8801 4.68675 23.6562 4.96289 23.6562H25.0379C25.314 23.6562 25.5379 23.8801 25.5379 24.1562V27.1875C25.5379 27.4636 25.314 27.6875 25.0379 27.6875H4.96289C4.68675 27.6875 4.46289 27.4636 4.46289 27.1875V24.1562ZM5.46289 24.6562V26.6875H24.5379V24.6562H5.46289Z" fill="#494A59"/>
</svg>
