<svg width="16" height="16" viewBox="0 0 16 16" fill="none" xmlns="http://www.w3.org/2000/svg">
<path d="M1.11717 10.3856L0.234968 14.2011C0.204534 14.3406 0.205578 14.4851 0.238021 14.6241C0.270464 14.7631 0.333488 14.8931 0.422489 15.0046C0.511489 15.1161 0.624218 15.2063 0.75244 15.2685C0.880662 15.3307 1.02114 15.3635 1.16361 15.3643C1.22999 15.3711 1.29688 15.3711 1.36326 15.3643L5.19389 14.4803L12.5487 7.1377L8.44412 3.03369L1.11717 10.3856Z" fill="white"/>
<path d="M14.8604 3.46174L12.121 0.716424C11.9409 0.536845 11.6971 0.436035 11.4431 0.436035C11.189 0.436035 10.9453 0.536845 10.7652 0.716424L9.24219 2.24263L13.3421 6.3513L14.8651 4.82509C14.9542 4.73532 15.0248 4.62882 15.0728 4.51169C15.1208 4.39455 15.1453 4.26908 15.1449 4.14245C15.1444 4.01582 15.1191 3.89052 15.0703 3.77371C15.0215 3.65691 14.9502 3.55089 14.8604 3.46174Z" fill="white"/>
</svg>
