<?xml version="1.0" standalone="no"?>
<!DOCTYPE svg PUBLIC "-//W3C//DTD SVG 20010904//EN"
 "http://www.w3.org/TR/2001/REC-SVG-20010904/DTD/svg10.dtd">
<svg version="1.0" xmlns="http://www.w3.org/2000/svg"
 width="20.000000pt" height="21.000000pt" viewBox="0 0 20.000000 21.000000"
 preserveAspectRatio="xMidYMid meet">

<g transform="translate(0.000000,21.000000) scale(0.100000,-0.100000)"
fill="#000000" stroke="none">
<path d="M4 197 c-3 -8 -4 -52 -2 -98 l3 -84 73 -3 72 -3 -1 33 c-2 30 -2 31
-6 6 -4 -27 -6 -28 -69 -28 l-64 0 0 89 0 90 43 4 42 4 -43 1 c-28 1 -44 -3
-48 -11z"/>
<path d="M102 157 c-92 -93 -51 -125 44 -35 51 48 53 52 38 70 -10 10 -20 18
-23 18 -4 0 -30 -24 -59 -53z m78 17 c0 -9 -5 -14 -12 -12 -18 6 -21 28 -4 28
9 0 16 -7 16 -16z m-60 -59 c-34 -35 -60 -45 -60 -24 0 7 17 27 38 45 50 43
68 26 22 -21z"/>
</g>
</svg>
