<svg width="42" height="43" viewBox="0 0 42 43" fill="none">
	<g clip-path="url(#clip0_141_473)">
		<path
			d="M31.5 29.868V21.5262C31.5001 20.9458 31.3834 20.3715 31.1572 19.8386C30.9309 19.3056 30.5999 18.8251 30.1843 18.4265L22.4427 10.9992C22.0528 10.625 21.5366 10.4165 21 10.4165C20.4634 10.4165 19.9472 10.625 19.5573 10.9992L11.8156 18.4265C11.4001 18.8251 11.069 19.3056 10.8428 19.8386C10.6166 20.3715 10.4999 20.9458 10.5 21.5262V29.868C10.5 30.4334 10.7212 30.9756 11.1151 31.3754C11.5089 31.7752 12.043 31.9998 12.6 31.9998H29.4C29.957 31.9998 30.4911 31.7752 30.8849 31.3754C31.2787 30.9756 31.5 30.4334 31.5 29.868Z"
			stroke="#494A59" stroke-width="2.5" stroke-linecap="round" stroke-linejoin="round" />
	</g>
	<defs>
		<clipPath id="clip0_141_473">
			<rect width="42" height="42" fill="white" transform="translate(0 0.5)" />
		</clipPath>
	</defs>
</svg>