<svg width="29" height="29" viewBox="0 0 29 29" fill="none" xmlns="http://www.w3.org/2000/svg">
<path fill-rule="evenodd" clip-rule="evenodd" d="M22.8828 19.9436C21.0006 19.9436 19.4648 21.4799 19.4648 23.3872C19.4648 25.2944 21.0006 26.8307 22.8828 26.8307C24.7651 26.8307 26.3008 25.2944 26.3008 23.3872C26.3008 21.4799 24.7651 19.9436 22.8828 19.9436ZM17.4648 23.3872C17.4648 20.3862 19.8851 17.9436 22.8828 17.9436C25.8805 17.9436 28.3008 20.3862 28.3008 23.3872C28.3008 26.3881 25.8805 28.8307 22.8828 28.8307C19.8851 28.8307 17.4648 26.3881 17.4648 23.3872Z" fill="#494A59"/>
<path fill-rule="evenodd" clip-rule="evenodd" d="M5.21094 2.16931C3.32868 2.16931 1.79297 3.70559 1.79297 5.61286C1.79297 7.52013 3.32868 9.05641 5.21094 9.05641C7.09319 9.05641 8.62891 7.52013 8.62891 5.61286C8.62891 3.70559 7.09319 2.16931 5.21094 2.16931ZM-0.207031 5.61286C-0.207031 2.61192 2.21324 0.169312 5.21094 0.169312C8.20863 0.169312 10.6289 2.61192 10.6289 5.61286C10.6289 8.6138 8.20863 11.0564 5.21094 11.0564C2.21324 11.0564 -0.207031 8.6138 -0.207031 5.61286Z" fill="#494A59"/>
<path fill-rule="evenodd" clip-rule="evenodd" d="M14.5195 5.61292C14.5195 5.06063 14.9672 4.61292 15.5195 4.61292H19.9375C20.9857 4.61292 21.9899 5.03179 22.7293 5.77551C23.4685 6.51903 23.8828 7.52625 23.8828 8.57528V18.9436C23.8828 19.4958 23.4351 19.9436 22.8828 19.9436C22.3305 19.9436 21.8828 19.4958 21.8828 18.9436V8.57528C21.8828 8.05297 21.6765 7.55321 21.311 7.18563C20.9457 6.81825 20.4516 6.61292 19.9375 6.61292H15.5195C14.9672 6.61292 14.5195 6.1652 14.5195 5.61292Z" fill="#494A59"/>
<path fill-rule="evenodd" clip-rule="evenodd" d="M5.21094 9.0564C5.76322 9.0564 6.21094 9.50411 6.21094 10.0564V27.8306C6.21094 28.3829 5.76322 28.8306 5.21094 28.8306C4.65865 28.8306 4.21094 28.3829 4.21094 27.8306V10.0564C4.21094 9.50411 4.65865 9.0564 5.21094 9.0564Z" fill="#494A59"/>
</svg>
