<svg width="72" height="72" viewBox="0 0 72 72" fill="none" xmlns="http://www.w3.org/2000/svg">
<path d="M32.7999 42.8H23.1999C21.9269 42.8 20.706 43.3057 19.8058 44.2059C18.9056 45.1061 18.3999 46.327 18.3999 47.6V50.8H21.5999V47.6C21.5999 47.1757 21.7685 46.7687 22.0685 46.4687C22.3686 46.1686 22.7756 46 23.1999 46H32.7999C33.2242 46 33.6312 46.1686 33.9313 46.4687C34.2313 46.7687 34.3999 47.1757 34.3999 47.6V50.8H37.5999V47.6C37.5999 46.327 37.0942 45.1061 36.194 44.2059C35.2938 43.3057 34.0729 42.8 32.7999 42.8V42.8ZM27.9999 41.2C29.2657 41.2 30.5031 40.8247 31.5556 40.1214C32.608 39.4182 33.4283 38.4186 33.9127 37.2492C34.3971 36.0798 34.5239 34.7929 34.2769 33.5515C34.03 32.31 33.4204 31.1696 32.5254 30.2745C31.6303 29.3795 30.49 28.7699 29.2485 28.523C28.007 28.2761 26.7202 28.4028 25.5507 28.8872C24.3813 29.3716 23.3817 30.1919 22.6785 31.2444C21.9753 32.2969 21.5999 33.5342 21.5999 34.8C21.5999 36.4974 22.2742 38.1253 23.4744 39.3255C24.6747 40.5257 26.3025 41.2 27.9999 41.2ZM27.9999 31.6C28.6328 31.6 29.2515 31.7877 29.7777 32.1393C30.304 32.4909 30.7141 32.9907 30.9563 33.5754C31.1985 34.1602 31.2619 34.8036 31.1384 35.4243C31.0149 36.0451 30.7102 36.6152 30.2626 37.0628C29.8151 37.5103 29.2449 37.8151 28.6242 37.9385C28.0035 38.062 27.36 37.9986 26.7753 37.7564C26.1906 37.5142 25.6908 37.1041 25.3392 36.5779C24.9876 36.0516 24.7999 35.4329 24.7999 34.8C24.7999 33.9513 25.137 33.1374 25.7372 32.5373C26.3373 31.9372 27.1512 31.6 27.9999 31.6V31.6Z" fill="#494A59"/>
<path d="M53.6 41.2V55.6H15.2V23.6H34.4V20.4H15.2C14.3513 20.4 13.5374 20.7372 12.9373 21.3373C12.3371 21.9374 12 22.7513 12 23.6V55.6C12 56.4487 12.3371 57.2626 12.9373 57.8628C13.5374 58.4629 14.3513 58.8 15.2 58.8H53.6C54.4487 58.8 55.2626 58.4629 55.8627 57.8628C56.4629 57.2626 56.8 56.4487 56.8 55.6V41.2H53.6Z" fill="#494A59"/>
<path d="M40.8001 41.2H50.4001V44.4H40.8001V41.2ZM44.0001 47.6H50.4001V50.8H44.0001V47.6ZM60.0001 26.8V23.6H56.6385C56.4321 22.5984 56.0345 21.6461 55.4673 20.7952L57.8513 18.4112L55.5889 16.1488L53.2049 18.5328C52.354 17.9656 51.4017 17.5679 50.4001 17.3616V14H47.2001V17.3616C46.1985 17.5679 45.2462 17.9656 44.3953 18.5328L42.0113 16.1488L39.7489 18.4112L42.1329 20.7952C41.5657 21.6461 41.168 22.5984 40.9617 23.6H37.6001V26.8H40.9617C41.168 27.8016 41.5657 28.7539 42.1329 29.6048L39.7489 31.9888L42.0113 34.2512L44.3953 31.8672C45.2462 32.4344 46.1985 32.8321 47.2001 33.0384V36.4H50.4001V33.0384C51.4017 32.8321 52.354 32.4344 53.2049 31.8672L55.5889 34.2512L57.8513 31.9888L55.4673 29.6048C56.0345 28.7539 56.4321 27.8016 56.6385 26.8H60.0001ZM48.8001 30C47.8507 30 46.9227 29.7185 46.1334 29.1911C45.344 28.6636 44.7288 27.914 44.3655 27.0369C44.0022 26.1598 43.9071 25.1947 44.0923 24.2636C44.2775 23.3325 44.7347 22.4772 45.406 21.8059C46.0773 21.1346 46.9326 20.6774 47.8637 20.4922C48.7948 20.307 49.7599 20.4021 50.637 20.7654C51.5141 21.1287 52.2637 21.7439 52.7912 22.5333C53.3186 23.3226 53.6001 24.2506 53.6001 25.2C53.5988 26.4726 53.0927 27.6928 52.1928 28.5927C51.2929 29.4926 50.0727 29.9987 48.8001 30V30Z" fill="#494A59"/>
</svg>
