<svg width="30" height="30" viewBox="0 0 30 30" fill="none" xmlns="http://www.w3.org/2000/svg">
<path d="M7.07 25.5988C6.89053 25.7548 6.67025 25.8564 6.43504 25.8917C6.19983 25.9269 5.95945 25.8943 5.74211 25.7978C5.52477 25.7012 5.3395 25.5446 5.20805 25.3464C5.0766 25.1481 5.00443 24.9165 5 24.6788V21.875C4.33696 21.875 3.70107 21.6116 3.23223 21.1428C2.76339 20.6739 2.5 20.038 2.5 19.375V10.625C2.5 9.96196 2.76339 9.32607 3.23223 8.85723C3.70107 8.38839 4.33696 8.125 5 8.125H18.75C19.413 8.125 20.0489 8.38839 20.5178 8.85723C20.9866 9.32607 21.25 9.96196 21.25 10.625V19.375C21.25 20.038 20.9866 20.6739 20.5178 21.1428C20.0489 21.6116 19.413 21.875 18.75 21.875H12.5038L7.07 25.5988V25.5988ZM8.125 21.7325C8.2389 21.7318 8.35076 21.7022 8.45 21.6463L11.3937 19.5987C11.6033 19.4531 11.8523 19.375 12.1075 19.375H17.5C17.8315 19.375 18.1495 19.2433 18.3839 19.0089C18.6183 18.7745 18.75 18.4565 18.75 18.125V11.875C18.75 11.5435 18.6183 11.2255 18.3839 10.9911C18.1495 10.7567 17.8315 10.625 17.5 10.625H6.25C5.91848 10.625 5.60054 10.7567 5.36612 10.9911C5.1317 11.2255 5 11.5435 5 11.875V18.125C5 18.8 5.53625 19.3525 6.25 19.375C6.7625 19.395 7.13375 19.4787 7.305 19.6575C7.465 19.825 7.47375 20.1075 7.5 20.645C7.50375 20.7237 7.50375 20.8662 7.5 21.1075C7.5 21.2733 7.56585 21.4322 7.68306 21.5494C7.80027 21.6667 7.95924 21.7325 8.125 21.7325V21.7325ZM22.5 15.645C22.496 15.7991 22.496 15.9534 22.5 16.1075V15.645C22.525 15.1075 22.535 14.825 22.695 14.6575C22.8663 14.4787 23.2375 14.395 23.75 14.375C24.4637 14.3525 25 13.8 25 13.125V6.875C25 6.54348 24.8683 6.22554 24.6339 5.99112C24.3995 5.7567 24.0815 5.625 23.75 5.625H12.5C12.1685 5.625 11.8505 5.7567 11.6161 5.99112C11.3817 6.22554 11.25 6.54348 11.25 6.875H8.75V5.625C8.75 4.96196 9.01339 4.32607 9.48223 3.85723C9.95107 3.38839 10.587 3.125 11.25 3.125H25C25.663 3.125 26.2989 3.38839 26.7678 3.85723C27.2366 4.32607 27.5 4.96196 27.5 5.625V14.375C27.5 15.038 27.2366 15.6739 26.7678 16.1428C26.2989 16.6116 25.663 16.875 25 16.875V19.6788C24.9956 19.9165 24.9234 20.1481 24.7919 20.3464C24.6605 20.5446 24.4752 20.7012 24.2579 20.7978C24.0406 20.8943 23.8002 20.9269 23.565 20.8917C23.3297 20.8564 23.1095 20.7548 22.93 20.5988L22.5 20.3038V15.6463V15.645Z" fill="#494A59"/>
</svg>
