<svg width="20" height="24" viewBox="0 0 20 24" fill="none" xmlns="http://www.w3.org/2000/svg">
<path d="M12.5 0H2.5C1.83696 0 1.20107 0.252856 0.732233 0.702944C0.263392 1.15303 0 1.76348 0 2.4V21.6C0 22.2365 0.263392 22.847 0.732233 23.2971C1.20107 23.7471 1.83696 24 2.5 24H17.5C18.163 24 18.7989 23.7471 19.2678 23.2971C19.7366 22.847 20 22.2365 20 21.6V7.2L12.5 0ZM6.54875 17.3352C6.54875 18.7176 5.86 19.2 4.75125 19.2C4.48875 19.2 4.14375 19.1568 3.92 19.0836L4.04625 18.1992C4.205 18.2496 4.4075 18.2856 4.6325 18.2856C5.1125 18.2856 5.41125 18.0768 5.41125 17.3208V14.2692H6.55V17.3352H6.54875ZM10.6663 16.8972C10.275 17.2488 9.7 17.4084 9.025 17.4084C8.875 17.4084 8.74 17.4 8.635 17.3856V19.1196H7.5025V14.334C8.01377 14.2601 8.53052 14.2268 9.0475 14.2344C9.75125 14.2344 10.2538 14.3628 10.59 14.622C10.9138 14.8668 11.1312 15.27 11.1312 15.7452C11.1312 16.2204 10.965 16.6236 10.6663 16.8972ZM16.08 18.8976C15.73 19.0128 15.0613 19.1712 14.3938 19.1712C13.4725 19.1712 12.805 18.948 12.34 18.516C11.8763 18.0984 11.6213 17.466 11.6275 16.7532C11.6363 15.1404 12.8563 14.22 14.5138 14.22C15.165 14.22 15.6688 14.3436 15.915 14.4576L15.6763 15.3348C15.3988 15.2196 15.055 15.126 14.5 15.126C13.5488 15.126 12.8275 15.6444 12.8275 16.6956C12.8275 17.6952 13.4813 18.2856 14.4163 18.2856C14.68 18.2856 14.8888 18.2568 14.98 18.2124V17.1972H14.2V16.3416H16.08V18.8976ZM12.5 8.4H11.25V2.4L17.5 8.4H12.5Z" fill="#3A3A3A"/>
<path d="M8.25 16.4913C8.45648 16.5913 8.70815 16.65 8.97973 16.65C9.68128 16.65 10.25 16.2583 10.25 15.775C10.25 15.2918 9.68128 14.9 8.97973 14.9C8.70815 14.9 8.45648 14.9587 8.25 15.0587V16.4913Z" fill="#3A3A3A"/>
</svg>
