<svg width="40" height="40" viewBox="0 0 40 40" fill="none" xmlns="http://www.w3.org/2000/svg">
<rect width="40" height="40" rx="10" fill="#F56A3F"/>
<path d="M19.0676 10.8889C19.0676 11.0289 19.0131 11.0444 18.6009 11.0444C18.1887 11.0444 18.1342 11.06 18.1342 11.2C18.1342 11.3011 18.0798 11.3556 17.9787 11.3556C17.8776 11.3556 17.8231 11.41 17.8231 11.5111C17.8231 11.6122 17.7687 11.6667 17.6676 11.6667C17.5665 11.6667 17.512 11.7211 17.512 11.8222C17.512 11.9233 17.4576 11.9778 17.3565 11.9778C17.2554 11.9778 17.2009 12.0322 17.2009 12.1333C17.2009 12.2344 17.1465 12.2889 17.0454 12.2889C16.9442 12.2889 16.8898 12.3433 16.8898 12.4444C16.8898 12.5456 16.8354 12.6 16.7342 12.6C16.5942 12.6 16.5787 12.6544 16.5787 13.0667C16.5787 13.4789 16.5631 13.5333 16.4231 13.5333C16.2754 13.5333 16.2676 13.5878 16.2676 14.4667C16.2676 15.3456 16.2754 15.4 16.4231 15.4C16.5631 15.4 16.5787 15.4544 16.5787 15.8667C16.5787 16.2789 16.5942 16.3333 16.7342 16.3333C16.8354 16.3333 16.8898 16.3878 16.8898 16.4889C16.8898 16.59 16.9442 16.6444 17.0454 16.6444C17.1465 16.6444 17.2009 16.6989 17.2009 16.8C17.2009 16.9011 17.2554 16.9556 17.3565 16.9556C17.4576 16.9556 17.512 17.01 17.512 17.1111C17.512 17.2122 17.5665 17.2667 17.6676 17.2667C17.7687 17.2667 17.8231 17.3211 17.8231 17.4222C17.8231 17.5233 17.8776 17.5778 17.9787 17.5778C18.0798 17.5778 18.1342 17.6322 18.1342 17.7333C18.1342 17.8733 18.1887 17.8889 18.6009 17.8889C19.0131 17.8889 19.0676 17.9044 19.0676 18.0444C19.0676 18.1922 19.122 18.2 20.0009 18.2C20.8798 18.2 20.9342 18.1922 20.9342 18.0444C20.9342 17.9044 20.9887 17.8889 21.4009 17.8889C21.8131 17.8889 21.8676 17.8733 21.8676 17.7333C21.8676 17.6322 21.922 17.5778 22.0231 17.5778C22.1242 17.5778 22.1787 17.5233 22.1787 17.4222C22.1787 17.3211 22.2331 17.2667 22.3342 17.2667C22.4354 17.2667 22.4898 17.2122 22.4898 17.1111C22.4898 17.01 22.5442 16.9556 22.6454 16.9556C22.7465 16.9556 22.8009 16.9011 22.8009 16.8C22.8009 16.6989 22.8554 16.6444 22.9565 16.6444C23.0576 16.6444 23.112 16.59 23.112 16.4889C23.112 16.3878 23.1665 16.3333 23.2676 16.3333C23.4076 16.3333 23.4231 16.2789 23.4231 15.8667C23.4231 15.4544 23.4387 15.4 23.5787 15.4C23.7265 15.4 23.7342 15.3456 23.7342 14.4667C23.7342 13.5878 23.7265 13.5333 23.5787 13.5333C23.4387 13.5333 23.4231 13.4789 23.4231 13.0667C23.4231 12.6544 23.4076 12.6 23.2676 12.6C23.1665 12.6 23.112 12.5456 23.112 12.4444C23.112 12.3433 23.0576 12.2889 22.9565 12.2889C22.8554 12.2889 22.8009 12.2344 22.8009 12.1333C22.8009 12.0322 22.7465 11.9778 22.6454 11.9778C22.5442 11.9778 22.4898 11.9233 22.4898 11.8222C22.4898 11.7211 22.4354 11.6667 22.3342 11.6667C22.2331 11.6667 22.1787 11.6122 22.1787 11.5111C22.1787 11.41 22.1242 11.3556 22.0231 11.3556C21.922 11.3556 21.8676 11.3011 21.8676 11.2C21.8676 11.06 21.8131 11.0444 21.4009 11.0444C20.9887 11.0444 20.9342 11.0289 20.9342 10.8889C20.9342 10.7411 20.8798 10.7333 20.0009 10.7333C19.122 10.7333 19.0676 10.7411 19.0676 10.8889Z" fill="white"/>
<path d="M10.6669 14.6222C10.6669 14.7622 10.6125 14.7778 10.2003 14.7778C9.78804 14.7778 9.73359 14.7933 9.73359 14.9333C9.73359 15.0344 9.67915 15.0889 9.57804 15.0889C9.47693 15.0889 9.42248 15.1433 9.42248 15.2444C9.42248 15.3455 9.36804 15.4 9.26693 15.4C9.16582 15.4 9.11137 15.4544 9.11137 15.5555C9.11137 15.6567 9.05693 15.7111 8.95582 15.7111C8.8547 15.7111 8.80026 15.7655 8.80026 15.8667C8.80026 15.9678 8.74582 16.0222 8.6447 16.0222C8.54359 16.0222 8.48915 16.0767 8.48915 16.1778C8.48915 16.2789 8.4347 16.3333 8.33359 16.3333C8.19359 16.3333 8.17804 16.3878 8.17804 16.8C8.17804 17.2122 8.16248 17.2667 8.02248 17.2667C7.8747 17.2667 7.86693 17.3211 7.86693 18.2C7.86693 19.0789 7.8747 19.1333 8.02248 19.1333C8.16248 19.1333 8.17804 19.1878 8.17804 19.6C8.17804 20.0122 8.19359 20.0667 8.33359 20.0667C8.4347 20.0667 8.48915 20.1211 8.48915 20.2222C8.48915 20.3233 8.54359 20.3778 8.6447 20.3778C8.74582 20.3778 8.80026 20.4322 8.80026 20.5333C8.80026 20.6344 8.8547 20.6889 8.95582 20.6889C9.05693 20.6889 9.11137 20.7433 9.11137 20.8444C9.11137 20.9455 9.16582 21 9.26693 21C9.36804 21 9.42248 21.0544 9.42248 21.1555C9.42248 21.2567 9.47693 21.3111 9.57804 21.3111C9.67915 21.3111 9.73359 21.3655 9.73359 21.4667C9.73359 21.6067 9.78804 21.6222 10.2003 21.6222C10.6125 21.6222 10.6669 21.6378 10.6669 21.7778C10.6669 21.9178 10.6125 21.9333 10.2003 21.9333C9.78804 21.9333 9.73359 21.9489 9.73359 22.0889C9.73359 22.2289 9.67915 22.2444 9.26693 22.2444C8.8547 22.2444 8.80026 22.26 8.80026 22.4C8.80026 22.5011 8.74582 22.5555 8.6447 22.5555C8.54359 22.5555 8.48915 22.61 8.48915 22.7111C8.48915 22.8122 8.4347 22.8667 8.33359 22.8667C8.23248 22.8667 8.17804 22.9211 8.17804 23.0222C8.17804 23.1233 8.12359 23.1778 8.02248 23.1778C7.92137 23.1778 7.86693 23.2322 7.86693 23.3333C7.86693 23.4344 7.81248 23.4889 7.71137 23.4889C7.61026 23.4889 7.55582 23.5433 7.55582 23.6444C7.55582 23.7455 7.50137 23.8 7.40026 23.8C7.26026 23.8 7.2447 23.8544 7.2447 24.2667C7.2447 24.6789 7.22915 24.7333 7.08915 24.7333C6.93359 24.7333 6.93359 24.7878 6.93359 26.9111C6.93359 29.0344 6.93359 29.0889 7.08915 29.0889C7.19026 29.0889 7.2447 29.1433 7.2447 29.2444C7.2447 29.4 7.29915 29.4 20.0003 29.4C32.7014 29.4 32.7558 29.4 32.7558 29.2444C32.7558 29.1433 32.8103 29.0889 32.9114 29.0889C33.0669 29.0889 33.0669 29.0344 33.0669 26.9111C33.0669 24.7878 33.0669 24.7333 32.9114 24.7333C32.7714 24.7333 32.7558 24.6789 32.7558 24.2667C32.7558 23.8544 32.7403 23.8 32.6003 23.8C32.4991 23.8 32.4447 23.7455 32.4447 23.6444C32.4447 23.5433 32.3903 23.4889 32.2892 23.4889C32.188 23.4889 32.1336 23.4344 32.1336 23.3333C32.1336 23.2322 32.0791 23.1778 31.978 23.1778C31.8769 23.1778 31.8225 23.1233 31.8225 23.0222C31.8225 22.9211 31.768 22.8667 31.6669 22.8667C31.5658 22.8667 31.5114 22.8122 31.5114 22.7111C31.5114 22.61 31.4569 22.5555 31.3558 22.5555C31.2547 22.5555 31.2003 22.5011 31.2003 22.4C31.2003 22.26 31.1458 22.2444 30.7336 22.2444C30.3214 22.2444 30.2669 22.2289 30.2669 22.0889C30.2669 21.9489 30.2125 21.9333 29.8003 21.9333C29.388 21.9333 29.3336 21.9178 29.3336 21.7778C29.3336 21.6378 29.388 21.6222 29.8003 21.6222C30.2125 21.6222 30.2669 21.6067 30.2669 21.4667C30.2669 21.3655 30.3214 21.3111 30.4225 21.3111C30.5236 21.3111 30.578 21.2567 30.578 21.1555C30.578 21.0544 30.6325 21 30.7336 21C30.8347 21 30.8892 20.9455 30.8892 20.8444C30.8892 20.7433 30.9436 20.6889 31.0447 20.6889C31.1458 20.6889 31.2003 20.6344 31.2003 20.5333C31.2003 20.4322 31.2547 20.3778 31.3558 20.3778C31.4569 20.3778 31.5114 20.3233 31.5114 20.2222C31.5114 20.1211 31.5658 20.0667 31.6669 20.0667C31.8069 20.0667 31.8225 20.0122 31.8225 19.6C31.8225 19.1878 31.838 19.1333 31.978 19.1333C32.1258 19.1333 32.1336 19.0789 32.1336 18.2C32.1336 17.3211 32.1258 17.2667 31.978 17.2667C31.838 17.2667 31.8225 17.2122 31.8225 16.8C31.8225 16.3878 31.8069 16.3333 31.6669 16.3333C31.5658 16.3333 31.5114 16.2789 31.5114 16.1778C31.5114 16.0767 31.4569 16.0222 31.3558 16.0222C31.2547 16.0222 31.2003 15.9678 31.2003 15.8667C31.2003 15.7655 31.1458 15.7111 31.0447 15.7111C30.9436 15.7111 30.8892 15.6567 30.8892 15.5555C30.8892 15.4544 30.8347 15.4 30.7336 15.4C30.6325 15.4 30.578 15.3455 30.578 15.2444C30.578 15.1433 30.5236 15.0889 30.4225 15.0889C30.3214 15.0889 30.2669 15.0344 30.2669 14.9333C30.2669 14.7933 30.2125 14.7778 29.8003 14.7778C29.388 14.7778 29.3336 14.7622 29.3336 14.6222C29.3336 14.4744 29.2792 14.4667 28.4003 14.4667C27.5214 14.4667 27.4669 14.4744 27.4669 14.6222C27.4669 14.7622 27.4125 14.7778 27.0003 14.7778C26.588 14.7778 26.5336 14.7933 26.5336 14.9333C26.5336 15.0344 26.4791 15.0889 26.378 15.0889C26.2769 15.0889 26.2225 15.1433 26.2225 15.2444C26.2225 15.3455 26.168 15.4 26.0669 15.4C25.9658 15.4 25.9114 15.4544 25.9114 15.5555C25.9114 15.6567 25.8569 15.7111 25.7558 15.7111C25.6547 15.7111 25.6003 15.7655 25.6003 15.8667C25.6003 15.9678 25.5458 16.0222 25.4447 16.0222C25.3436 16.0222 25.2892 16.0767 25.2892 16.1778C25.2892 16.2789 25.2347 16.3333 25.1336 16.3333C24.9936 16.3333 24.978 16.3878 24.978 16.8C24.978 17.2122 24.9625 17.2667 24.8225 17.2667C24.6747 17.2667 24.6669 17.3211 24.6669 18.2C24.6669 19.0789 24.6747 19.1333 24.8225 19.1333C24.9625 19.1333 24.978 19.1878 24.978 19.6C24.978 20.0122 24.9936 20.0667 25.1336 20.0667C25.2347 20.0667 25.2892 20.1211 25.2892 20.2222C25.2892 20.3233 25.3436 20.3778 25.4447 20.3778C25.5458 20.3778 25.6003 20.4322 25.6003 20.5333C25.6003 20.6344 25.6547 20.6889 25.7558 20.6889C25.8569 20.6889 25.9114 20.7433 25.9114 20.8444C25.9114 20.9455 25.9658 21 26.0669 21C26.168 21 26.2225 21.0544 26.2225 21.1555C26.2225 21.2567 26.2769 21.3111 26.378 21.3111C26.4791 21.3111 26.5336 21.3655 26.5336 21.4667C26.5336 21.6067 26.588 21.6222 27.0003 21.6222C27.4125 21.6222 27.4669 21.6378 27.4669 21.7778C27.4669 21.9178 27.4125 21.9333 27.0003 21.9333C26.588 21.9333 26.5336 21.9489 26.5336 22.0889C26.5336 22.2289 26.4791 22.2444 26.0669 22.2444C25.6547 22.2444 25.6003 22.26 25.6003 22.4C25.6003 22.5011 25.5458 22.5555 25.4447 22.5555C25.3436 22.5555 25.2892 22.5011 25.2892 22.4C25.2892 22.2989 25.2347 22.2444 25.1336 22.2444C25.0014 22.2444 24.978 22.19 24.978 21.9333C24.978 21.6767 24.9547 21.6222 24.8225 21.6222C24.7214 21.6222 24.6669 21.5678 24.6669 21.4667C24.6669 21.3655 24.6125 21.3111 24.5114 21.3111C24.4103 21.3111 24.3558 21.2567 24.3558 21.1555C24.3558 21.0233 24.3014 21 24.0447 21C23.788 21 23.7336 20.9767 23.7336 20.8444C23.7336 20.7433 23.6791 20.6889 23.578 20.6889C23.4769 20.6889 23.4225 20.6344 23.4225 20.5333C23.4225 20.3933 23.368 20.3778 22.9558 20.3778C22.5436 20.3778 22.4892 20.3622 22.4892 20.2222C22.4892 20.0667 22.4347 20.0667 20.0003 20.0667C17.5658 20.0667 17.5114 20.0667 17.5114 20.2222C17.5114 20.3544 17.4569 20.3778 17.2003 20.3778C16.9436 20.3778 16.8891 20.4011 16.8891 20.5333C16.8891 20.6655 16.8347 20.6889 16.578 20.6889C16.3214 20.6889 16.2669 20.7122 16.2669 20.8444C16.2669 20.9767 16.2125 21 15.9558 21C15.6991 21 15.6447 21.0233 15.6447 21.1555C15.6447 21.2567 15.5903 21.3111 15.4891 21.3111C15.3569 21.3111 15.3336 21.3655 15.3336 21.6222C15.3336 21.8789 15.3103 21.9333 15.178 21.9333C15.0769 21.9333 15.0225 21.9878 15.0225 22.0889C15.0225 22.19 14.968 22.2444 14.8669 22.2444C14.7658 22.2444 14.7114 22.2989 14.7114 22.4C14.7114 22.5011 14.6569 22.5555 14.5558 22.5555C14.4547 22.5555 14.4003 22.5011 14.4003 22.4C14.4003 22.26 14.3458 22.2444 13.9336 22.2444C13.5214 22.2444 13.4669 22.2289 13.4669 22.0889C13.4669 21.9489 13.4125 21.9333 13.0003 21.9333C12.588 21.9333 12.5336 21.9178 12.5336 21.7778C12.5336 21.6378 12.588 21.6222 13.0003 21.6222C13.4125 21.6222 13.4669 21.6067 13.4669 21.4667C13.4669 21.3655 13.5214 21.3111 13.6225 21.3111C13.7236 21.3111 13.778 21.2567 13.778 21.1555C13.778 21.0544 13.8325 21 13.9336 21C14.0347 21 14.0891 20.9455 14.0891 20.8444C14.0891 20.7433 14.1436 20.6889 14.2447 20.6889C14.3458 20.6889 14.4003 20.6344 14.4003 20.5333C14.4003 20.4322 14.4547 20.3778 14.5558 20.3778C14.6569 20.3778 14.7114 20.3233 14.7114 20.2222C14.7114 20.1211 14.7658 20.0667 14.8669 20.0667C15.0069 20.0667 15.0225 20.0122 15.0225 19.6C15.0225 19.1878 15.038 19.1333 15.178 19.1333C15.3258 19.1333 15.3336 19.0789 15.3336 18.2C15.3336 17.3211 15.3258 17.2667 15.178 17.2667C15.038 17.2667 15.0225 17.2122 15.0225 16.8C15.0225 16.3878 15.0069 16.3333 14.8669 16.3333C14.7658 16.3333 14.7114 16.2789 14.7114 16.1778C14.7114 16.0767 14.6569 16.0222 14.5558 16.0222C14.4547 16.0222 14.4003 15.9678 14.4003 15.8667C14.4003 15.7655 14.3458 15.7111 14.2447 15.7111C14.1436 15.7111 14.0891 15.6567 14.0891 15.5555C14.0891 15.4544 14.0347 15.4 13.9336 15.4C13.8325 15.4 13.778 15.3455 13.778 15.2444C13.778 15.1433 13.7236 15.0889 13.6225 15.0889C13.5214 15.0889 13.4669 15.0344 13.4669 14.9333C13.4669 14.7933 13.4125 14.7778 13.0003 14.7778C12.588 14.7778 12.5336 14.7622 12.5336 14.6222C12.5336 14.4744 12.4791 14.4667 11.6003 14.4667C10.7214 14.4667 10.6669 14.4744 10.6669 14.6222ZM12.2225 16.4889C12.2225 16.6211 12.2769 16.6444 12.5336 16.6444C12.7903 16.6444 12.8447 16.6678 12.8447 16.8C12.8447 16.9011 12.8991 16.9555 13.0003 16.9555C13.1325 16.9555 13.1558 17.01 13.1558 17.2667C13.1558 17.5233 13.1791 17.5778 13.3114 17.5778C13.4514 17.5778 13.4669 17.6322 13.4669 18.2C13.4669 18.7678 13.4514 18.8222 13.3114 18.8222C13.1791 18.8222 13.1558 18.8767 13.1558 19.1333C13.1558 19.39 13.1325 19.4444 13.0003 19.4444C12.8991 19.4444 12.8447 19.4989 12.8447 19.6C12.8447 19.7322 12.7903 19.7555 12.5336 19.7555C12.2769 19.7555 12.2225 19.7789 12.2225 19.9111C12.2225 20.0511 12.168 20.0667 11.6003 20.0667C11.0325 20.0667 10.978 20.0511 10.978 19.9111C10.978 19.7789 10.9236 19.7555 10.6669 19.7555C10.4103 19.7555 10.3558 19.7322 10.3558 19.6C10.3558 19.4989 10.3014 19.4444 10.2003 19.4444C10.068 19.4444 10.0447 19.39 10.0447 19.1333C10.0447 18.8767 10.0214 18.8222 9.88915 18.8222C9.74915 18.8222 9.73359 18.7678 9.73359 18.2C9.73359 17.6322 9.74915 17.5778 9.88915 17.5778C10.0214 17.5778 10.0447 17.5233 10.0447 17.2667C10.0447 17.01 10.068 16.9555 10.2003 16.9555C10.3014 16.9555 10.3558 16.9011 10.3558 16.8C10.3558 16.6678 10.4103 16.6444 10.6669 16.6444C10.9236 16.6444 10.978 16.6211 10.978 16.4889C10.978 16.3489 11.0325 16.3333 11.6003 16.3333C12.168 16.3333 12.2225 16.3489 12.2225 16.4889ZM29.0225 16.4889C29.0225 16.6211 29.0769 16.6444 29.3336 16.6444C29.5903 16.6444 29.6447 16.6678 29.6447 16.8C29.6447 16.9011 29.6992 16.9555 29.8003 16.9555C29.9325 16.9555 29.9558 17.01 29.9558 17.2667C29.9558 17.5233 29.9792 17.5778 30.1114 17.5778C30.2514 17.5778 30.2669 17.6322 30.2669 18.2C30.2669 18.7678 30.2514 18.8222 30.1114 18.8222C29.9792 18.8222 29.9558 18.8767 29.9558 19.1333C29.9558 19.39 29.9325 19.4444 29.8003 19.4444C29.6992 19.4444 29.6447 19.4989 29.6447 19.6C29.6447 19.7322 29.5903 19.7555 29.3336 19.7555C29.0769 19.7555 29.0225 19.7789 29.0225 19.9111C29.0225 20.0511 28.968 20.0667 28.4003 20.0667C27.8325 20.0667 27.778 20.0511 27.778 19.9111C27.778 19.7789 27.7236 19.7555 27.4669 19.7555C27.2103 19.7555 27.1558 19.7322 27.1558 19.6C27.1558 19.4989 27.1014 19.4444 27.0003 19.4444C26.868 19.4444 26.8447 19.39 26.8447 19.1333C26.8447 18.8767 26.8214 18.8222 26.6891 18.8222C26.5492 18.8222 26.5336 18.7678 26.5336 18.2C26.5336 17.6322 26.5492 17.5778 26.6891 17.5778C26.8214 17.5778 26.8447 17.5233 26.8447 17.2667C26.8447 17.01 26.868 16.9555 27.0003 16.9555C27.1014 16.9555 27.1558 16.9011 27.1558 16.8C27.1558 16.6678 27.2103 16.6444 27.4669 16.6444C27.7236 16.6444 27.778 16.6211 27.778 16.4889C27.778 16.3489 27.8325 16.3333 28.4003 16.3333C28.968 16.3333 29.0225 16.3489 29.0225 16.4889ZM13.1558 23.9555C13.1558 24.0878 13.2103 24.1111 13.4669 24.1111C13.7236 24.1111 13.778 24.1344 13.778 24.2667C13.778 24.3678 13.8325 24.4222 13.9336 24.4222C14.0658 24.4222 14.0891 24.4767 14.0891 24.7333C14.0891 24.99 14.1125 25.0444 14.2447 25.0444C14.3925 25.0444 14.4003 25.0989 14.4003 26.2889V27.5333H11.6003H8.80026V26.2889C8.80026 25.0989 8.80804 25.0444 8.95582 25.0444C9.08804 25.0444 9.11137 24.99 9.11137 24.7333C9.11137 24.4767 9.1347 24.4222 9.26693 24.4222C9.36804 24.4222 9.42248 24.3678 9.42248 24.2667C9.42248 24.1344 9.47693 24.1111 9.73359 24.1111C9.99026 24.1111 10.0447 24.0878 10.0447 23.9555C10.0447 23.8078 10.0991 23.8 11.6003 23.8C13.1014 23.8 13.1558 23.8078 13.1558 23.9555ZM29.9558 23.9555C29.9558 24.0878 30.0103 24.1111 30.2669 24.1111C30.5236 24.1111 30.578 24.1344 30.578 24.2667C30.578 24.3678 30.6325 24.4222 30.7336 24.4222C30.8658 24.4222 30.8892 24.4767 30.8892 24.7333C30.8892 24.99 30.9125 25.0444 31.0447 25.0444C31.1925 25.0444 31.2003 25.0989 31.2003 26.2889V27.5333H28.4003H25.6003V26.2889C25.6003 25.0989 25.608 25.0444 25.7558 25.0444C25.888 25.0444 25.9114 24.99 25.9114 24.7333C25.9114 24.4767 25.9347 24.4222 26.0669 24.4222C26.168 24.4222 26.2225 24.3678 26.2225 24.2667C26.2225 24.1344 26.2769 24.1111 26.5336 24.1111C26.7903 24.1111 26.8447 24.0878 26.8447 23.9555C26.8447 23.8078 26.8991 23.8 28.4003 23.8C29.9014 23.8 29.9558 23.8078 29.9558 23.9555Z" fill="white"/>
</svg>
