<svg width="42" height="43" viewBox="0 0 42 43" fill="none" xmlns="http://www.w3.org/2000/svg">
<path d="M29.75 21.4998H18.6666M27.4166 24.9998L30.9166 21.4998L27.4166 17.9998M21.5833 15.6665V14.4998C21.5833 13.881 21.3375 13.2875 20.8999 12.8499C20.4623 12.4123 19.8688 12.1665 19.25 12.1665H13.4166C12.7978 12.1665 12.2043 12.4123 11.7667 12.8499C11.3291 13.2875 11.0833 13.881 11.0833 14.4998V28.4998C11.0833 29.1187 11.3291 29.7122 11.7667 30.1498C12.2043 30.5873 12.7978 30.8332 13.4166 30.8332H19.25C19.8688 30.8332 20.4623 30.5873 20.8999 30.1498C21.3375 29.7122 21.5833 29.1187 21.5833 28.4998V27.3332" stroke="#494A59" stroke-width="2.5" stroke-linecap="round" stroke-linejoin="round"/>
</svg>
