<svg width="30" height="30" viewBox="0 0 30 30" fill="none" xmlns="http://www.w3.org/2000/svg">
<path fill-rule="evenodd" clip-rule="evenodd" d="M7.47504 0.00316556H22.4536C24.4106 -0.0543233 26.3093 0.673202 27.7268 2.02368C29.1442 3.37417 29.9628 5.23544 30 7.19289V18.0203C29.8834 22.0443 26.55 25.225 22.525 25.153H20.214C19.6331 25.1545 19.0834 25.4162 18.7161 25.8662L16.5335 28.648C16.1679 29.1004 15.6174 29.3633 15.0357 29.3633C14.454 29.3633 13.9034 29.1004 13.5378 28.648L11.2839 25.8092C10.9166 25.3591 10.3669 25.0974 9.78602 25.0959H7.47504C3.44997 25.1679 0.116609 21.9872 0 17.9632V7.13583C0.108945 3.10841 3.44693 -0.0766909 7.47504 0.00316556ZM22.4679 23.0131C25.3331 23.085 27.7177 20.8279 27.8031 17.9631V7.19281C27.7177 4.3223 25.3243 2.06293 22.4536 2.14288H7.47503C4.60437 2.06293 2.21097 4.3223 2.12553 7.19281V17.9631C2.21097 20.8336 4.60437 23.093 7.47503 23.0131H9.78602C11.023 23.0133 12.193 23.5747 12.9672 24.5395L14.9643 27.0787L16.9615 24.5395C17.7357 23.5747 18.9057 23.0133 20.1427 23.0131H22.4679Z" fill="white"/>
<path d="M9.61482 9.93176C9.02393 9.93176 8.54492 10.4108 8.54492 11.0017V14.4253C8.54492 15.0162 9.02393 15.4952 9.61482 15.4952C10.2057 15.4952 10.6847 15.0162 10.6847 14.4253V11.0017C10.6847 10.4108 10.2057 9.93176 9.61482 9.93176V9.93176Z" fill="white"/>
<path d="M14.9643 9.93176C14.3735 9.93176 13.8944 10.4108 13.8944 11.0017V14.4253C13.8944 15.0162 14.3735 15.4952 14.9643 15.4952C15.5552 15.4952 16.0342 15.0162 16.0342 14.4253V11.0017C16.0342 10.4108 15.5552 9.93176 14.9643 9.93176V9.93176Z" fill="white"/>
<path d="M20.3138 9.93176C19.7229 9.93176 19.2439 10.4108 19.2439 11.0017V14.4253C19.2439 15.0162 19.7229 15.4952 20.3138 15.4952C20.9047 15.4952 21.3837 15.0162 21.3837 14.4253V11.0017C21.3837 10.4108 20.9047 9.93176 20.3138 9.93176V9.93176Z" fill="white"/>
</svg>
