<svg width="3" height="17" viewBox="0 0 3 17" fill="none" xmlns="http://www.w3.org/2000/svg">
<path d="M3 1.41667C3 1.79239 2.84197 2.15272 2.56066 2.4184C2.27936 2.68408 1.89782 2.83333 1.5 2.83333C1.10218 2.83333 0.720645 2.68408 0.43934 2.4184C0.158036 2.15272 0 1.79239 0 1.41667C0 1.04094 0.158036 0.680609 0.43934 0.414932C0.720645 0.149256 1.10218 0 1.5 0C1.89782 0 2.27936 0.149256 2.56066 0.414932C2.84197 0.680609 3 1.04094 3 1.41667ZM3 8.5C3 8.87572 2.84197 9.23606 2.56066 9.50173C2.27936 9.76741 1.89782 9.91667 1.5 9.91667C1.10218 9.91667 0.720645 9.76741 0.43934 9.50173C0.158036 9.23606 0 8.87572 0 8.5C0 8.12428 0.158036 7.76394 0.43934 7.49827C0.720645 7.23259 1.10218 7.08333 1.5 7.08333C1.89782 7.08333 2.27936 7.23259 2.56066 7.49827C2.84197 7.76394 3 8.12428 3 8.5ZM3 15.5833C3 15.9591 2.84197 16.3194 2.56066 16.5851C2.27936 16.8507 1.89782 17 1.5 17C1.10218 17 0.720645 16.8507 0.43934 16.5851C0.158036 16.3194 0 15.9591 0 15.5833C0 15.2076 0.158036 14.8473 0.43934 14.5816C0.720645 14.3159 1.10218 14.1667 1.5 14.1667C1.89782 14.1667 2.27936 14.3159 2.56066 14.5816C2.84197 14.8473 3 15.2076 3 15.5833Z" fill="#B5B7C0"/>
</svg>
