<svg width="24" height="30" viewBox="0 0 24 30" fill="none" xmlns="http://www.w3.org/2000/svg">
<path d="M10.5674 0.35C10.1328 0.549999 9.5192 1.025 9.21241 1.4C8.75222 2 8.36873 2.15 7.32053 2.25C6.04223 2.375 5.9911 2.4 5.9144 3.15L5.8377 3.95L3.81799 4.05C1.92611 4.125 1.72158 4.175 0.954604 4.95L0.110927 5.75L0.0342288 16.7C-0.0424691 26.55 -0.0169031 27.7 0.392152 28.425C1.21026 29.975 1.46592 30 11.9735 30C20.2313 30 21.5608 29.95 22.3278 29.6C24.0662 28.775 24.0662 28.9 23.964 16.7L23.8873 5.75L23.0436 4.95C22.2766 4.175 22.0721 4.125 20.1802 4.05L18.1605 3.95L18.0838 3.15C18.0071 2.4 17.9815 2.375 16.601 2.3C15.3482 2.225 15.1437 2.15 14.7602 1.475C14.3 0.699999 12.945 0 11.948 0C11.6156 0.0249996 11.002 0.174999 10.5674 0.35ZM12.8683 1.525C13.2263 1.7 13.6865 2.2 13.9165 2.65C14.3 3.45 14.4023 3.5 15.5783 3.5H16.8566V5V6.5H11.9991H7.14157V5V3.5H8.3943C9.54477 3.5 9.6726 3.45 9.95382 2.75C10.5163 1.4 11.59 0.949999 12.8683 1.525ZM5.9144 6.425L5.9911 7.625H11.9991H18.0071L18.0838 6.425L18.1605 5.25H19.7712C20.9983 5.25 21.5608 5.375 21.9954 5.725L22.609 6.2L22.6857 16.825C22.7624 27 22.7368 27.45 22.2511 28.025L21.7653 28.625H11.9991H2.2329L1.74715 28.025C1.2614 27.45 1.23583 27 1.31253 16.825L1.38923 6.2L2.00281 5.725C2.43743 5.375 2.99988 5.25 4.22705 5.25H5.8377L5.9144 6.425Z" fill="#494A59"/>
<path d="M7.26921 11.125C5.81195 12.375 5.60742 12.45 5.14724 11.75C4.78931 11.15 3.94564 11.1 3.71554 11.625C3.56215 12.075 5.19837 14 5.76082 14C5.93978 14 6.78346 13.375 7.6527 12.575C8.72647 11.6 9.18666 11.025 9.13553 10.675C9.0077 9.84997 8.62421 9.94997 7.26921 11.125Z" fill="#494A59"/>
<path d="M11.0531 11.925C10.8741 11.975 10.7207 12.25 10.7207 12.525C10.7207 12.975 10.9508 13 15.4504 13C19.9245 13 20.1801 12.975 20.1801 12.525C20.1801 12.275 20.0011 11.975 19.7711 11.9C19.2853 11.725 11.5132 11.725 11.0531 11.925Z" fill="#494A59"/>
<path d="M7.24365 16.85C5.83752 18.125 5.60743 18.2 5.14724 17.5C4.78932 16.9 3.94564 16.85 3.71555 17.375C3.56215 17.8 5.19837 19.75 5.73526 19.75C5.88865 19.75 6.7579 19.125 7.62714 18.35C8.72648 17.35 9.18666 16.775 9.13553 16.425C9.0077 15.575 8.52195 15.675 7.24365 16.85Z" fill="#494A59"/>
<path d="M10.8997 17.65C10.7974 17.75 10.7207 18.05 10.7207 18.3C10.7207 18.725 11.0275 18.75 15.476 18.75H20.2057L20.129 18.175C20.0523 17.625 20.0011 17.625 15.5527 17.55C13.0983 17.525 11.0019 17.575 10.8997 17.65Z" fill="#494A59"/>
<path d="M7.09038 22.675L5.88878 23.85L5.2752 23.3C4.02246 22.15 3.15322 22.825 4.25256 24.1C5.63312 25.675 5.70982 25.675 7.55057 24.1C8.75217 23.075 9.18679 22.525 9.13566 22.15C9.00783 21.275 8.34311 21.45 7.09038 22.675Z" fill="#494A59"/>
<path d="M10.8997 23.4C10.7974 23.5 10.7207 23.8 10.7207 24.05C10.7207 24.475 11.0275 24.5 15.476 24.5H20.2057L20.129 23.925C20.0523 23.375 20.0011 23.375 15.5527 23.3C13.0983 23.275 11.0019 23.325 10.8997 23.4Z" fill="#494A59"/>
</svg>
