<svg width="33" height="42" viewBox="0 0 33 42" fill="none" xmlns="http://www.w3.org/2000/svg">
<path d="M14.5302 0.4818C13.9326 0.757053 13.0889 1.41079 12.6671 1.92689C12.0343 2.75265 11.507 2.95909 10.0657 3.09672C8.30807 3.26875 8.23776 3.30316 8.1323 4.33537L8.02684 5.43639L5.24974 5.57401C2.6484 5.67723 2.36718 5.74605 1.31258 6.81266L0.152524 7.91368L0.0470646 22.9839C-0.058395 36.5402 -0.0232418 38.1229 0.53921 39.1207C1.66411 41.2539 2.01564 41.2883 16.4636 41.2883C27.8181 41.2883 29.6461 41.2195 30.7007 40.7378C33.0911 39.6024 33.0911 39.7744 32.9505 22.9839L32.845 7.91368L31.685 6.81266C30.6304 5.74605 30.3491 5.67723 27.7478 5.57401L24.9707 5.43639L24.8652 4.33537C24.7598 3.30316 24.7246 3.26875 22.8263 3.16553C21.1038 3.06231 20.8226 2.95909 20.2953 2.03011C19.6626 0.963493 17.7994 0.000102997 16.4285 0.000102997C15.9715 0.0345116 15.1278 0.240952 14.5302 0.4818ZM17.694 2.09892C18.1861 2.33977 18.8189 3.02791 19.1353 3.64723C19.6626 4.74825 19.8032 4.81706 21.4202 4.81706H23.1779V6.88147V8.94588H16.4988H9.81966V6.88147V4.81706H11.5422C13.1241 4.81706 13.2998 4.74825 13.6865 3.78486C14.4599 1.92689 15.9363 1.30756 17.694 2.09892ZM8.1323 8.84267L8.23776 10.4942H16.4988H24.7598L24.8652 8.84267L24.9707 7.22554H27.1853C28.8727 7.22554 29.6461 7.39758 30.2437 7.87927L31.0873 8.533L31.1928 23.1559C31.2983 37.1595 31.2631 37.7788 30.5952 38.5702L29.9273 39.396H16.4988H3.07024L2.40233 38.5702C1.73442 37.7788 1.69927 37.1595 1.80473 23.1559L1.91018 8.533L2.75386 7.87927C3.35147 7.39758 4.12484 7.22554 5.81219 7.22554H8.02684L8.1323 8.84267Z" fill="black"/>
<path d="M9.99491 15.3111C7.99118 17.0315 7.70995 17.1347 7.07719 16.1713C6.58505 15.3455 5.42499 15.2767 5.10861 15.9993C4.89769 16.6186 7.1475 19.2679 7.92087 19.2679C8.16694 19.2679 9.327 18.4077 10.5222 17.3067C11.9986 15.9649 12.6314 15.1735 12.5611 14.6918C12.3853 13.5564 11.858 13.694 9.99491 15.3111Z" fill="black"/>
<path d="M15.1972 16.412C14.9512 16.4808 14.7402 16.8592 14.7402 17.2377C14.7402 17.857 15.0566 17.8914 21.2436 17.8914C27.3954 17.8914 27.7469 17.857 27.7469 17.2377C27.7469 16.8937 27.5008 16.4808 27.1845 16.3775C26.5166 16.1367 15.83 16.1367 15.1972 16.412Z" fill="black"/>
<path d="M9.95976 23.1904C8.02633 24.9451 7.70995 25.0483 7.0772 24.0849C6.58505 23.2592 5.42499 23.1904 5.10862 23.9129C4.8977 24.4978 7.1475 27.1815 7.88572 27.1815C8.09664 27.1815 9.29185 26.3214 10.4871 25.2548C11.9986 23.8785 12.6314 23.0871 12.5611 22.6054C12.3853 21.4356 11.7174 21.5732 9.95976 23.1904Z" fill="black"/>
<path d="M14.9863 24.2912C14.8457 24.4288 14.7402 24.8417 14.7402 25.1858C14.7402 25.7707 15.1621 25.8051 21.2787 25.8051H27.7821L27.6766 25.0137C27.5712 24.2568 27.5008 24.2568 21.3842 24.1536C18.0095 24.1191 15.1269 24.188 14.9863 24.2912Z" fill="black"/>
<path d="M9.74927 31.2072L8.09707 32.8243L7.25339 32.0673C5.53089 30.4846 4.33568 31.4136 5.84727 33.1683C7.74554 35.336 7.851 35.336 10.382 33.1683C12.0342 31.7577 12.6318 31.0007 12.5615 30.4846C12.3858 29.2804 11.4718 29.5212 9.74927 31.2072Z" fill="black"/>
<path d="M14.9863 32.2048C14.8457 32.3424 14.7402 32.7553 14.7402 33.0994C14.7402 33.6843 15.1621 33.7187 21.2787 33.7187H27.7821L27.6766 32.9274C27.5712 32.1704 27.5008 32.1704 21.3842 32.0672C18.0095 32.0328 15.1269 32.1016 14.9863 32.2048Z" fill="black"/>
</svg>
