<svg width="72" height="72" viewBox="0 0 72 72" fill="none" xmlns="http://www.w3.org/2000/svg">
<path d="M54.6005 46.2857V37.7143C54.5996 36.8053 54.2403 35.9337 53.6013 35.2909C52.9624 34.6481 52.0961 34.2866 51.1925 34.2857H37.5603V25.7143H42.6724C43.576 25.7134 44.4423 25.3519 45.0812 24.7091C45.7202 24.0663 46.0795 23.1947 46.0804 22.2857V15.4286C46.0795 14.5195 45.7202 13.648 45.0812 13.0052C44.4423 12.3624 43.576 12.0009 42.6724 12H29.0402C28.1366 12.0009 27.2703 12.3624 26.6314 13.0052C25.9924 13.648 25.6331 14.5195 25.6322 15.4286V22.2857C25.6331 23.1947 25.9924 24.0663 26.6314 24.7091C27.2703 25.3519 28.1366 25.7134 29.0402 25.7143H34.1523V34.2857H20.5201C19.6165 34.2866 18.7502 34.6481 18.1113 35.2909C17.4723 35.9337 17.113 36.8053 17.1121 37.7143V46.2857H12V60H25.6322V46.2857H20.5201V37.7143H34.1523V46.2857H29.0402V60H42.6724V46.2857H37.5603V37.7143H51.1925V46.2857H46.0804V60H59.7126V46.2857H54.6005ZM29.0402 15.4286H42.6724V22.2857H29.0402V15.4286ZM22.2241 56.5714H15.408V49.7143H22.2241V56.5714ZM39.2643 56.5714H32.4482V49.7143H39.2643V56.5714ZM56.3045 56.5714H49.4885V49.7143H56.3045V56.5714Z" fill="#494A59"/>
</svg>
