<svg width="30" height="8" viewBox="0 0 30 8" fill="none" xmlns="http://www.w3.org/2000/svg">
<path d="M2.28456 0.33398C-0.281131 1.52456 -0.784208 4.98805 1.27841 6.96333C2.88826 8.47861 4.97603 8.31625 6.4098 6.58451C7.74295 4.93393 7.66749 2.71513 6.23372 1.22691C5.02633 -0.0177813 3.66802 -0.315426 2.28456 0.33398Z" fill="#383945"/>
<path d="M13.604 0.33398C11.0383 1.52456 10.5352 4.98805 12.5979 6.96333C14.2077 8.47861 16.2955 8.31625 17.7293 6.58451C19.0624 4.93393 18.9869 2.71513 17.5532 1.22691C16.3458 -0.0177813 14.9875 -0.315426 13.604 0.33398Z" fill="#383945"/>
<path d="M24.9235 0.33398C22.3578 1.52456 21.8547 4.98805 23.9173 6.96333C25.5272 8.47861 27.6149 8.31625 29.0487 6.58451C30.3819 4.93393 30.3064 2.71513 28.8726 1.22691C27.6652 -0.0177813 26.3069 -0.315426 24.9235 0.33398Z" fill="#383945"/>
</svg>
