<?xml version="1.0" standalone="no"?>
<!DOCTYPE svg PUBLIC "-//W3C//DTD SVG 20010904//EN"
 "http://www.w3.org/TR/2001/REC-SVG-20010904/DTD/svg10.dtd">
<svg version="1.0" xmlns="http://www.w3.org/2000/svg"
 width="512.000000pt" height="512.000000pt" viewBox="0 0 512.000000 512.000000"
 preserveAspectRatio="xMidYMid meet">

<g transform="translate(0.000000,512.000000) scale(0.100000,-0.100000)"
fill="#000000" stroke="none">
<path d="M1766 5000 c-416 -66 -754 -363 -870 -764 -37 -127 -51 -275 -36
-398 52 -452 353 -804 790 -926 86 -24 111 -27 270 -27 151 0 186 3 260 23
309 84 558 286 694 565 262 533 45 1166 -489 1428 -141 69 -267 99 -430 104
-71 2 -157 0 -189 -5z m302 -326 c275 -57 501 -270 573 -541 30 -111 30 -270
0 -378 -61 -219 -197 -383 -396 -480 -110 -53 -205 -75 -325 -75 -380 0 -694
280 -740 659 -28 225 46 437 210 602 188 190 427 265 678 213z"/>
<path d="M837 2434 c-209 -38 -384 -131 -537 -284 -157 -157 -248 -331 -285
-548 -13 -73 -15 -169 -13 -530 3 -427 4 -441 24 -468 11 -15 33 -37 48 -48
27 -21 32 -21 1327 -24 1278 -2 1300 -2 1338 18 112 57 113 223 0 280 -37 20
-64 20 -1229 20 l-1191 0 3 358 c4 357 4 357 31 437 37 112 90 198 172 280 82
81 168 134 280 173 l80 27 1025 3 c1150 3 1111 5 1269 -69 147 -69 246 -42
281 76 35 120 -73 213 -329 283 l-96 27 -1060 2 c-878 1 -1073 -1 -1138 -13z"/>
<path d="M4036 2435 c-170 -43 -316 -175 -378 -340 -20 -54 -23 -82 -26 -276
l-3 -216 -69 -7 c-149 -13 -260 -87 -322 -214 l-33 -67 0 -465 0 -465 33 -67
c40 -82 119 -157 200 -190 l57 -23 665 0 665 0 57 23 c81 33 160 108 200 190
l33 67 0 465 0 465 -33 67 c-62 127 -173 201 -322 214 l-69 7 -3 216 c-3 193
-6 222 -25 274 -58 155 -181 276 -334 328 -82 28 -213 34 -293 14z m202 -321
c49 -20 90 -60 113 -109 16 -34 19 -66 19 -222 l0 -183 -210 0 -210 0 0 185
c0 163 2 190 19 223 53 102 169 148 269 106z m546 -854 c14 -11 16 -63 16
-411 l0 -398 -22 -15 c-20 -14 -95 -16 -618 -16 -523 0 -598 2 -618 16 l-22
15 0 399 c0 378 1 400 19 412 27 19 1222 18 1245 -2z"/>
</g>
</svg>
