<svg width="347" height="242" viewBox="0 0 347 242" fill="none" xmlns="http://www.w3.org/2000/svg">
<path d="M49.3551 101.537C59.9036 62.1696 100.369 38.807 139.736 49.3556C179.104 59.9041 202.467 100.369 191.918 139.737C181.37 179.105 140.905 202.467 101.537 191.919C62.1691 181.37 38.8065 140.905 49.3551 101.537ZM173.433 134.784C181.246 105.625 163.942 75.6538 134.783 67.8408C105.625 60.0277 75.6533 77.3318 67.8403 106.49C60.0272 135.649 77.3312 165.62 106.49 173.434C135.649 181.247 165.62 163.943 173.433 134.784Z" fill="#1DDD8D"/>
<path d="M25.4934 95.1436C31.7222 71.8974 46.246 51.7359 66.3229 38.4654C86.3997 25.195 110.64 19.7339 134.468 23.1132C158.296 26.4925 180.062 38.4783 195.657 56.8079C211.253 75.1374 219.598 98.5422 219.117 122.604L193.579 122.094C193.935 104.272 187.754 86.9367 176.203 73.3605C164.652 59.7843 148.53 50.9067 130.881 48.4037C113.233 45.9008 95.2784 49.9457 80.408 59.7747C65.5376 69.6038 54.7802 84.5369 50.1667 101.755L25.4934 95.1436Z" fill="#A155B9"/>
<path d="M120.637 219.137C106.245 219.137 92.0288 215.984 78.9872 209.898C65.9457 203.813 54.396 194.944 45.1507 183.915C35.9054 172.886 29.1892 159.966 25.4745 146.062C21.7599 132.158 21.137 117.609 23.6498 103.439C26.1625 89.2687 31.7498 75.8211 40.0187 64.0423C48.2875 52.2636 59.0369 42.4399 71.5106 35.2623C83.9844 28.0847 97.8794 23.7276 112.218 22.4976C126.557 21.2676 140.991 23.1946 154.505 28.1429L145.864 51.7411C135.798 48.0552 125.046 46.6199 114.366 47.5361C103.685 48.4523 93.3355 51.6977 84.0442 57.0441C74.7529 62.3904 66.746 69.7078 60.5868 78.4815C54.4277 87.2551 50.2658 97.2718 48.3942 107.827C46.5225 118.382 46.9864 129.219 49.7534 139.575C52.5203 149.932 57.523 159.556 64.4095 167.771C71.296 175.986 79.8991 182.592 89.6133 187.125C99.3275 191.658 109.917 194.007 120.637 194.007L120.637 219.137Z" fill="#F765A3"/>
<path d="M219.137 120.637C219.137 135.029 215.983 149.245 209.898 162.287C203.813 175.328 194.944 186.878 183.915 196.123C172.886 205.368 159.965 212.085 146.061 215.799C132.158 219.514 117.609 220.137 103.438 217.624C89.2682 215.111 75.8206 209.524 64.0419 201.255C52.2631 192.986 42.4394 182.237 35.2618 169.763C28.0842 157.29 23.7271 143.395 22.4971 129.056C21.2671 114.717 23.1941 100.283 28.1424 86.7691L51.6414 95.3736C47.9503 105.454 46.5129 116.221 47.4304 126.917C48.3479 137.613 51.598 147.978 56.9521 157.282C62.3061 166.587 69.6341 174.605 78.4203 180.774C87.2065 186.942 97.2376 191.109 107.808 192.984C118.378 194.858 129.231 194.393 139.602 191.623C149.973 188.852 159.611 183.842 167.838 176.945C176.065 170.049 182.681 161.433 187.22 151.705C191.76 141.977 194.112 131.372 194.112 120.637H219.137Z" fill="#165BAA"/>
<path d="M286.194 69.1372V60.4099H289.142C289.827 60.4099 290.387 60.5335 290.821 60.7807C291.259 61.025 291.583 61.356 291.793 61.7736C292.003 62.1912 292.108 62.6571 292.108 63.1713C292.108 63.6855 292.003 64.1528 291.793 64.5733C291.586 64.9937 291.265 65.329 290.83 65.579C290.395 65.8261 289.838 65.9497 289.159 65.9497H287.046V65.0122H289.125C289.594 65.0122 289.971 64.9312 290.255 64.7693C290.539 64.6074 290.745 64.3886 290.873 64.1131C291.003 63.8347 291.069 63.5207 291.069 63.1713C291.069 62.8219 291.003 62.5094 290.873 62.2338C290.745 61.9582 290.537 61.7423 290.25 61.5861C289.963 61.427 289.583 61.3474 289.108 61.3474H287.25V69.1372H286.194ZM293.674 69.1372V62.5918H294.646V63.5804H294.714C294.833 63.2565 295.049 62.9937 295.362 62.792C295.674 62.5903 296.027 62.4895 296.419 62.4895C296.493 62.4895 296.585 62.4909 296.696 62.4937C296.806 62.4966 296.89 62.5008 296.947 62.5065V63.5293C296.913 63.5207 296.835 63.5079 296.713 63.4909C296.593 63.471 296.467 63.4611 296.333 63.4611C296.015 63.4611 295.731 63.5278 295.481 63.6614C295.234 63.792 295.038 63.9739 294.893 64.2068C294.751 64.4369 294.68 64.6997 294.68 64.9952V69.1372H293.674ZM300.599 69.2736C300.008 69.2736 299.49 69.1329 299.044 68.8517C298.6 68.5704 298.254 68.177 298.004 67.6713C297.757 67.1656 297.633 66.5747 297.633 65.8986C297.633 65.2168 297.757 64.6216 298.004 64.1131C298.254 63.6045 298.6 63.2097 299.044 62.9284C299.49 62.6472 300.008 62.5065 300.599 62.5065C301.19 62.5065 301.707 62.6472 302.15 62.9284C302.596 63.2097 302.943 63.6045 303.19 64.1131C303.44 64.6216 303.565 65.2168 303.565 65.8986C303.565 66.5747 303.44 67.1656 303.19 67.6713C302.943 68.177 302.596 68.5704 302.15 68.8517C301.707 69.1329 301.19 69.2736 300.599 69.2736ZM300.599 68.3702C301.048 68.3702 301.417 68.2551 301.707 68.025C301.997 67.7949 302.211 67.4923 302.35 67.1173C302.49 66.7423 302.559 66.3361 302.559 65.8986C302.559 65.4611 302.49 65.0534 302.35 64.6756C302.211 64.2977 301.997 63.9923 301.707 63.7594C301.417 63.5264 301.048 63.4099 300.599 63.4099C300.15 63.4099 299.781 63.5264 299.491 63.7594C299.201 63.9923 298.987 64.2977 298.848 64.6756C298.708 65.0534 298.639 65.4611 298.639 65.8986C298.639 66.3361 298.708 66.7423 298.848 67.1173C298.987 67.4923 299.201 67.7949 299.491 68.025C299.781 68.2551 300.15 68.3702 300.599 68.3702ZM307.572 69.2736C307.026 69.2736 306.545 69.1358 306.127 68.8602C305.71 68.5818 305.383 68.1898 305.147 67.6841C304.911 67.1756 304.793 66.5747 304.793 65.8815C304.793 65.194 304.911 64.5974 305.147 64.0918C305.383 63.5861 305.711 63.1954 306.131 62.9199C306.552 62.6443 307.038 62.5065 307.589 62.5065C308.015 62.5065 308.352 62.5775 308.599 62.7196C308.849 62.8588 309.039 63.0179 309.17 63.1969C309.303 63.373 309.407 63.5179 309.481 63.6315H309.566V60.4099H310.572V69.1372H309.6V68.1315H309.481C309.407 68.2508 309.302 68.4014 309.165 68.5832C309.029 68.7622 308.835 68.9227 308.582 69.0648C308.329 69.204 307.992 69.2736 307.572 69.2736ZM307.708 68.3702C308.112 68.3702 308.452 68.265 308.731 68.0548C309.009 67.8418 309.221 67.5477 309.366 67.1727C309.511 66.7949 309.583 66.3588 309.583 65.8645C309.583 65.3758 309.512 64.9483 309.37 64.5818C309.228 64.2125 309.018 63.9256 308.739 63.721C308.461 63.5136 308.117 63.4099 307.708 63.4099C307.282 63.4099 306.927 63.5193 306.643 63.7381C306.362 63.954 306.15 64.248 306.008 64.6202C305.869 64.9895 305.799 65.4043 305.799 65.8645C305.799 66.3304 305.87 66.7537 306.012 67.1344C306.157 67.5122 306.37 67.8133 306.651 68.0378C306.935 68.2594 307.288 68.3702 307.708 68.3702ZM316.678 66.4611V62.5918H317.684V69.1372H316.678V68.0293H316.61C316.457 68.3616 316.218 68.6443 315.894 68.8773C315.57 69.1074 315.161 69.2224 314.667 69.2224C314.258 69.2224 313.894 69.1329 313.576 68.954C313.258 68.7722 313.008 68.4994 312.826 68.1358C312.644 67.7693 312.553 67.3077 312.553 66.7508V62.5918H313.559V66.6827C313.559 67.1599 313.692 67.5406 313.96 67.8247C314.229 68.1088 314.573 68.2508 314.991 68.2508C315.241 68.2508 315.495 68.1869 315.754 68.0591C316.015 67.9312 316.234 67.7352 316.41 67.471C316.589 67.2068 316.678 66.8702 316.678 66.4611ZM322.185 69.2736C321.571 69.2736 321.043 69.1287 320.6 68.8389C320.157 68.5491 319.816 68.15 319.577 67.6415C319.338 67.1329 319.219 66.552 319.219 65.8986C319.219 65.2338 319.341 64.6472 319.586 64.1386C319.833 63.6273 320.176 63.2281 320.617 62.9412C321.06 62.6514 321.577 62.5065 322.168 62.5065C322.628 62.5065 323.043 62.5918 323.412 62.7622C323.782 62.9327 324.084 63.1713 324.32 63.4781C324.556 63.7849 324.702 64.1429 324.759 64.552H323.753C323.676 64.2537 323.506 63.9895 323.242 63.7594C322.98 63.5264 322.628 63.4099 322.185 63.4099C321.793 63.4099 321.449 63.5122 321.154 63.7168C320.861 63.9185 320.632 64.204 320.468 64.5733C320.306 64.9398 320.225 65.3702 320.225 65.8645C320.225 66.3702 320.304 66.8105 320.463 67.1855C320.625 67.5605 320.853 67.8517 321.145 68.0591C321.441 68.2665 321.787 68.3702 322.185 68.3702C322.446 68.3702 322.684 68.3247 322.897 68.2338C323.11 68.1429 323.29 68.0122 323.438 67.8418C323.586 67.6713 323.691 67.4668 323.753 67.2281H324.759C324.702 67.6145 324.561 67.9625 324.337 68.2722C324.115 68.579 323.821 68.8233 323.455 69.0051C323.091 69.1841 322.668 69.2736 322.185 69.2736ZM329.076 62.5918V63.444H325.684V62.5918H329.076ZM326.672 61.0236H327.678V67.2622C327.678 67.5463 327.719 67.7594 327.801 67.9014C327.887 68.0406 327.995 68.1344 328.125 68.1827C328.259 68.2281 328.4 68.2508 328.547 68.2508C328.658 68.2508 328.749 68.2452 328.82 68.2338C328.891 68.2196 328.948 68.2082 328.99 68.1997L329.195 69.1031C329.127 69.1287 329.032 69.1543 328.909 69.1798C328.787 69.2082 328.632 69.2224 328.445 69.2224C328.161 69.2224 327.882 69.1614 327.61 69.0392C327.34 68.917 327.115 68.731 326.936 68.481C326.76 68.231 326.672 67.9156 326.672 67.5349V61.0236ZM333.946 69.1372V68.3702L336.827 65.2168C337.165 64.8474 337.444 64.5264 337.662 64.2537C337.881 63.9781 338.043 63.7196 338.148 63.4781C338.256 63.2338 338.31 62.9781 338.31 62.7111C338.31 62.4043 338.236 62.1386 338.088 61.9142C337.944 61.6898 337.745 61.5165 337.492 61.3943C337.239 61.2722 336.955 61.2111 336.64 61.2111C336.304 61.2111 336.012 61.2807 335.762 61.4199C335.515 61.5562 335.323 61.748 335.186 61.9952C335.053 62.2423 334.986 62.5321 334.986 62.8645H333.98C333.98 62.3531 334.098 61.9043 334.334 61.5179C334.57 61.1315 334.891 60.8304 335.297 60.6145C335.706 60.3986 336.165 60.2906 336.674 60.2906C337.185 60.2906 337.638 60.3986 338.033 60.6145C338.428 60.8304 338.738 61.1216 338.962 61.4881C339.186 61.8545 339.299 62.2622 339.299 62.7111C339.299 63.0321 339.24 63.346 339.124 63.6528C339.01 63.9568 338.811 64.2963 338.527 64.6713C338.246 65.0435 337.855 65.498 337.355 66.0349L335.395 68.1315V68.1997H339.452V69.1372H333.946Z" fill="#4F4F4F"/>
<rect x="255.137" y="61.1372" width="21" height="8" fill="#A155B9"/>
<path d="M286.194 94.1372V85.4099H289.142C289.827 85.4099 290.387 85.5335 290.821 85.7807C291.259 86.025 291.583 86.356 291.793 86.7736C292.003 87.1912 292.108 87.6571 292.108 88.1713C292.108 88.6855 292.003 89.1528 291.793 89.5733C291.586 89.9937 291.265 90.329 290.83 90.579C290.395 90.8261 289.838 90.9497 289.159 90.9497H287.046V90.0122H289.125C289.594 90.0122 289.971 89.9312 290.255 89.7693C290.539 89.6074 290.745 89.3886 290.873 89.1131C291.003 88.8347 291.069 88.5207 291.069 88.1713C291.069 87.8219 291.003 87.5094 290.873 87.2338C290.745 86.9582 290.537 86.7423 290.25 86.5861C289.963 86.427 289.583 86.3474 289.108 86.3474H287.25V94.1372H286.194ZM293.674 94.1372V87.5918H294.646V88.5804H294.714C294.833 88.2565 295.049 87.9937 295.362 87.792C295.674 87.5903 296.027 87.4895 296.419 87.4895C296.493 87.4895 296.585 87.4909 296.696 87.4937C296.806 87.4966 296.89 87.5008 296.947 87.5065V88.5293C296.913 88.5207 296.835 88.5079 296.713 88.4909C296.593 88.471 296.467 88.4611 296.333 88.4611C296.015 88.4611 295.731 88.5278 295.481 88.6614C295.234 88.792 295.038 88.9739 294.893 89.2068C294.751 89.4369 294.68 89.6997 294.68 89.9952V94.1372H293.674ZM300.599 94.2736C300.008 94.2736 299.49 94.1329 299.044 93.8517C298.6 93.5704 298.254 93.177 298.004 92.6713C297.757 92.1656 297.633 91.5747 297.633 90.8986C297.633 90.2168 297.757 89.6216 298.004 89.1131C298.254 88.6045 298.6 88.2097 299.044 87.9284C299.49 87.6472 300.008 87.5065 300.599 87.5065C301.19 87.5065 301.707 87.6472 302.15 87.9284C302.596 88.2097 302.943 88.6045 303.19 89.1131C303.44 89.6216 303.565 90.2168 303.565 90.8986C303.565 91.5747 303.44 92.1656 303.19 92.6713C302.943 93.177 302.596 93.5704 302.15 93.8517C301.707 94.1329 301.19 94.2736 300.599 94.2736ZM300.599 93.3702C301.048 93.3702 301.417 93.2551 301.707 93.025C301.997 92.7949 302.211 92.4923 302.35 92.1173C302.49 91.7423 302.559 91.3361 302.559 90.8986C302.559 90.4611 302.49 90.0534 302.35 89.6756C302.211 89.2977 301.997 88.9923 301.707 88.7594C301.417 88.5264 301.048 88.4099 300.599 88.4099C300.15 88.4099 299.781 88.5264 299.491 88.7594C299.201 88.9923 298.987 89.2977 298.848 89.6756C298.708 90.0534 298.639 90.4611 298.639 90.8986C298.639 91.3361 298.708 91.7423 298.848 92.1173C298.987 92.4923 299.201 92.7949 299.491 93.025C299.781 93.2551 300.15 93.3702 300.599 93.3702ZM307.572 94.2736C307.026 94.2736 306.545 94.1358 306.127 93.8602C305.71 93.5818 305.383 93.1898 305.147 92.6841C304.911 92.1756 304.793 91.5747 304.793 90.8815C304.793 90.194 304.911 89.5974 305.147 89.0918C305.383 88.5861 305.711 88.1954 306.131 87.9199C306.552 87.6443 307.038 87.5065 307.589 87.5065C308.015 87.5065 308.352 87.5775 308.599 87.7196C308.849 87.8588 309.039 88.0179 309.17 88.1969C309.303 88.373 309.407 88.5179 309.481 88.6315H309.566V85.4099H310.572V94.1372H309.6V93.1315H309.481C309.407 93.2508 309.302 93.4014 309.165 93.5832C309.029 93.7622 308.835 93.9227 308.582 94.0648C308.329 94.204 307.992 94.2736 307.572 94.2736ZM307.708 93.3702C308.112 93.3702 308.452 93.265 308.731 93.0548C309.009 92.8418 309.221 92.5477 309.366 92.1727C309.511 91.7949 309.583 91.3588 309.583 90.8645C309.583 90.3758 309.512 89.9483 309.37 89.5818C309.228 89.2125 309.018 88.9256 308.739 88.721C308.461 88.5136 308.117 88.4099 307.708 88.4099C307.282 88.4099 306.927 88.5193 306.643 88.7381C306.362 88.954 306.15 89.248 306.008 89.6202C305.869 89.9895 305.799 90.4043 305.799 90.8645C305.799 91.3304 305.87 91.7537 306.012 92.1344C306.157 92.5122 306.37 92.8133 306.651 93.0378C306.935 93.2594 307.288 93.3702 307.708 93.3702ZM316.678 91.4611V87.5918H317.684V94.1372H316.678V93.0293H316.61C316.457 93.3616 316.218 93.6443 315.894 93.8773C315.57 94.1074 315.161 94.2224 314.667 94.2224C314.258 94.2224 313.894 94.1329 313.576 93.954C313.258 93.7722 313.008 93.4994 312.826 93.1358C312.644 92.7693 312.553 92.3077 312.553 91.7508V87.5918H313.559V91.6827C313.559 92.1599 313.692 92.5406 313.96 92.8247C314.229 93.1088 314.573 93.2508 314.991 93.2508C315.241 93.2508 315.495 93.1869 315.754 93.0591C316.015 92.9312 316.234 92.7352 316.41 92.471C316.589 92.2068 316.678 91.8702 316.678 91.4611ZM322.185 94.2736C321.571 94.2736 321.043 94.1287 320.6 93.8389C320.157 93.5491 319.816 93.15 319.577 92.6415C319.338 92.1329 319.219 91.552 319.219 90.8986C319.219 90.2338 319.341 89.6472 319.586 89.1386C319.833 88.6273 320.176 88.2281 320.617 87.9412C321.06 87.6514 321.577 87.5065 322.168 87.5065C322.628 87.5065 323.043 87.5918 323.412 87.7622C323.782 87.9327 324.084 88.1713 324.32 88.4781C324.556 88.7849 324.702 89.1429 324.759 89.552H323.753C323.676 89.2537 323.506 88.9895 323.242 88.7594C322.98 88.5264 322.628 88.4099 322.185 88.4099C321.793 88.4099 321.449 88.5122 321.154 88.7168C320.861 88.9185 320.632 89.204 320.468 89.5733C320.306 89.9398 320.225 90.3702 320.225 90.8645C320.225 91.3702 320.304 91.8105 320.463 92.1855C320.625 92.5605 320.853 92.8517 321.145 93.0591C321.441 93.2665 321.787 93.3702 322.185 93.3702C322.446 93.3702 322.684 93.3247 322.897 93.2338C323.11 93.1429 323.29 93.0122 323.438 92.8418C323.586 92.6713 323.691 92.4668 323.753 92.2281H324.759C324.702 92.6145 324.561 92.9625 324.337 93.2722C324.115 93.579 323.821 93.8233 323.455 94.0051C323.091 94.1841 322.668 94.2736 322.185 94.2736ZM329.076 87.5918V88.444H325.684V87.5918H329.076ZM326.672 86.0236H327.678V92.2622C327.678 92.5463 327.719 92.7594 327.801 92.9014C327.887 93.0406 327.995 93.1344 328.125 93.1827C328.259 93.2281 328.4 93.2508 328.547 93.2508C328.658 93.2508 328.749 93.2452 328.82 93.2338C328.891 93.2196 328.948 93.2082 328.99 93.1997L329.195 94.1031C329.127 94.1287 329.032 94.1543 328.909 94.1798C328.787 94.2082 328.632 94.2224 328.445 94.2224C328.161 94.2224 327.882 94.1614 327.61 94.0392C327.34 93.917 327.115 93.731 326.936 93.481C326.76 93.231 326.672 92.9156 326.672 92.5349V86.0236ZM336.895 94.2565C336.333 94.2565 335.831 94.1599 335.391 93.9668C334.953 93.7736 334.605 93.5051 334.347 93.1614C334.091 92.8148 333.952 92.4128 333.929 91.9554H335.003C335.026 92.2366 335.123 92.4795 335.293 92.6841C335.463 92.8858 335.686 93.042 335.962 93.1528C336.238 93.2636 336.543 93.319 336.878 93.319C337.253 93.319 337.586 93.2537 337.875 93.123C338.165 92.9923 338.392 92.8105 338.557 92.5775C338.722 92.3446 338.804 92.0747 338.804 91.7679C338.804 91.4469 338.725 91.1642 338.566 90.9199C338.407 90.6727 338.174 90.4795 337.867 90.3403C337.56 90.2011 337.185 90.1315 336.742 90.1315H336.043V89.194H336.742C337.088 89.194 337.392 89.1315 337.654 89.0065C337.918 88.8815 338.124 88.7054 338.272 88.4781C338.422 88.2508 338.498 87.9838 338.498 87.677C338.498 87.3815 338.432 87.1244 338.301 86.9057C338.171 86.6869 337.986 86.5165 337.748 86.3943C337.512 86.2722 337.233 86.2111 336.912 86.2111C336.611 86.2111 336.327 86.2665 336.06 86.3773C335.796 86.4852 335.58 86.6429 335.412 86.8503C335.245 87.0548 335.154 87.302 335.14 87.5918H334.117C334.134 87.1344 334.272 86.7338 334.53 86.39C334.789 86.0435 335.127 85.7736 335.544 85.5804C335.965 85.3872 336.426 85.2906 336.929 85.2906C337.469 85.2906 337.932 85.4 338.319 85.6187C338.705 85.8346 339.002 86.1202 339.209 86.4753C339.417 86.8304 339.52 87.2139 339.52 87.6258C339.52 88.1173 339.391 88.5364 339.132 88.8829C338.877 89.2295 338.529 89.4696 338.088 89.6031V89.6713C338.64 89.7622 339.07 89.9966 339.38 90.3744C339.689 90.7494 339.844 91.2139 339.844 91.7679C339.844 92.2423 339.715 92.6685 339.456 93.0463C339.201 93.4213 338.851 93.7168 338.408 93.9327C337.965 94.1486 337.461 94.2565 336.895 94.2565Z" fill="#4F4F4F"/>
<rect x="255.137" y="86.1372" width="21" height="8" fill="#F765A3"/>
<path d="M286.194 119.137V110.41H289.142C289.827 110.41 290.387 110.534 290.821 110.781C291.259 111.025 291.583 111.356 291.793 111.774C292.003 112.191 292.108 112.657 292.108 113.171C292.108 113.686 292.003 114.153 291.793 114.573C291.586 114.994 291.265 115.329 290.83 115.579C290.395 115.826 289.838 115.95 289.159 115.95H287.046V115.012H289.125C289.594 115.012 289.971 114.931 290.255 114.769C290.539 114.607 290.745 114.389 290.873 114.113C291.003 113.835 291.069 113.521 291.069 113.171C291.069 112.822 291.003 112.509 290.873 112.234C290.745 111.958 290.537 111.742 290.25 111.586C289.963 111.427 289.583 111.347 289.108 111.347H287.25V119.137H286.194ZM293.674 119.137V112.592H294.646V113.58H294.714C294.833 113.257 295.049 112.994 295.362 112.792C295.674 112.59 296.027 112.489 296.419 112.489C296.493 112.489 296.585 112.491 296.696 112.494C296.806 112.497 296.89 112.501 296.947 112.507V113.529C296.913 113.521 296.835 113.508 296.713 113.491C296.593 113.471 296.467 113.461 296.333 113.461C296.015 113.461 295.731 113.528 295.481 113.661C295.234 113.792 295.038 113.974 294.893 114.207C294.751 114.437 294.68 114.7 294.68 114.995V119.137H293.674ZM300.599 119.274C300.008 119.274 299.49 119.133 299.044 118.852C298.6 118.57 298.254 118.177 298.004 117.671C297.757 117.166 297.633 116.575 297.633 115.899C297.633 115.217 297.757 114.622 298.004 114.113C298.254 113.605 298.6 113.21 299.044 112.928C299.49 112.647 300.008 112.507 300.599 112.507C301.19 112.507 301.707 112.647 302.15 112.928C302.596 113.21 302.943 113.605 303.19 114.113C303.44 114.622 303.565 115.217 303.565 115.899C303.565 116.575 303.44 117.166 303.19 117.671C302.943 118.177 302.596 118.57 302.15 118.852C301.707 119.133 301.19 119.274 300.599 119.274ZM300.599 118.37C301.048 118.37 301.417 118.255 301.707 118.025C301.997 117.795 302.211 117.492 302.35 117.117C302.49 116.742 302.559 116.336 302.559 115.899C302.559 115.461 302.49 115.053 302.35 114.676C302.211 114.298 301.997 113.992 301.707 113.759C301.417 113.526 301.048 113.41 300.599 113.41C300.15 113.41 299.781 113.526 299.491 113.759C299.201 113.992 298.987 114.298 298.848 114.676C298.708 115.053 298.639 115.461 298.639 115.899C298.639 116.336 298.708 116.742 298.848 117.117C298.987 117.492 299.201 117.795 299.491 118.025C299.781 118.255 300.15 118.37 300.599 118.37ZM307.572 119.274C307.026 119.274 306.545 119.136 306.127 118.86C305.71 118.582 305.383 118.19 305.147 117.684C304.911 117.176 304.793 116.575 304.793 115.882C304.793 115.194 304.911 114.597 305.147 114.092C305.383 113.586 305.711 113.195 306.131 112.92C306.552 112.644 307.038 112.507 307.589 112.507C308.015 112.507 308.352 112.578 308.599 112.72C308.849 112.859 309.039 113.018 309.17 113.197C309.303 113.373 309.407 113.518 309.481 113.632H309.566V110.41H310.572V119.137H309.6V118.132H309.481C309.407 118.251 309.302 118.401 309.165 118.583C309.029 118.762 308.835 118.923 308.582 119.065C308.329 119.204 307.992 119.274 307.572 119.274ZM307.708 118.37C308.112 118.37 308.452 118.265 308.731 118.055C309.009 117.842 309.221 117.548 309.366 117.173C309.511 116.795 309.583 116.359 309.583 115.864C309.583 115.376 309.512 114.948 309.37 114.582C309.228 114.212 309.018 113.926 308.739 113.721C308.461 113.514 308.117 113.41 307.708 113.41C307.282 113.41 306.927 113.519 306.643 113.738C306.362 113.954 306.15 114.248 306.008 114.62C305.869 114.989 305.799 115.404 305.799 115.864C305.799 116.33 305.87 116.754 306.012 117.134C306.157 117.512 306.37 117.813 306.651 118.038C306.935 118.259 307.288 118.37 307.708 118.37ZM316.678 116.461V112.592H317.684V119.137H316.678V118.029H316.61C316.457 118.362 316.218 118.644 315.894 118.877C315.57 119.107 315.161 119.222 314.667 119.222C314.258 119.222 313.894 119.133 313.576 118.954C313.258 118.772 313.008 118.499 312.826 118.136C312.644 117.769 312.553 117.308 312.553 116.751V112.592H313.559V116.683C313.559 117.16 313.692 117.541 313.96 117.825C314.229 118.109 314.573 118.251 314.991 118.251C315.241 118.251 315.495 118.187 315.754 118.059C316.015 117.931 316.234 117.735 316.41 117.471C316.589 117.207 316.678 116.87 316.678 116.461ZM322.185 119.274C321.571 119.274 321.043 119.129 320.6 118.839C320.157 118.549 319.816 118.15 319.577 117.641C319.338 117.133 319.219 116.552 319.219 115.899C319.219 115.234 319.341 114.647 319.586 114.139C319.833 113.627 320.176 113.228 320.617 112.941C321.06 112.651 321.577 112.507 322.168 112.507C322.628 112.507 323.043 112.592 323.412 112.762C323.782 112.933 324.084 113.171 324.32 113.478C324.556 113.785 324.702 114.143 324.759 114.552H323.753C323.676 114.254 323.506 113.989 323.242 113.759C322.98 113.526 322.628 113.41 322.185 113.41C321.793 113.41 321.449 113.512 321.154 113.717C320.861 113.918 320.632 114.204 320.468 114.573C320.306 114.94 320.225 115.37 320.225 115.864C320.225 116.37 320.304 116.811 320.463 117.186C320.625 117.561 320.853 117.852 321.145 118.059C321.441 118.266 321.787 118.37 322.185 118.37C322.446 118.37 322.684 118.325 322.897 118.234C323.11 118.143 323.29 118.012 323.438 117.842C323.586 117.671 323.691 117.467 323.753 117.228H324.759C324.702 117.614 324.561 117.962 324.337 118.272C324.115 118.579 323.821 118.823 323.455 119.005C323.091 119.184 322.668 119.274 322.185 119.274ZM329.076 112.592V113.444H325.684V112.592H329.076ZM326.672 111.024H327.678V117.262C327.678 117.546 327.719 117.759 327.801 117.901C327.887 118.041 327.995 118.134 328.125 118.183C328.259 118.228 328.4 118.251 328.547 118.251C328.658 118.251 328.749 118.245 328.82 118.234C328.891 118.22 328.948 118.208 328.99 118.2L329.195 119.103C329.127 119.129 329.032 119.154 328.909 119.18C328.787 119.208 328.632 119.222 328.445 119.222C328.161 119.222 327.882 119.161 327.61 119.039C327.34 118.917 327.115 118.731 326.936 118.481C326.76 118.231 326.672 117.916 326.672 117.535V111.024ZM333.742 117.347V116.478L337.577 110.41H338.208V111.757H337.782L334.884 116.342V116.41H340.049V117.347H333.742ZM337.85 119.137V117.083V116.678V110.41H338.855V119.137H337.85Z" fill="#4F4F4F"/>
<rect x="255.137" y="111.137" width="21" height="8" fill="#16BFD6"/>
<path d="M286.194 144.137V135.41H289.142C289.827 135.41 290.387 135.534 290.821 135.781C291.259 136.025 291.583 136.356 291.793 136.774C292.003 137.191 292.108 137.657 292.108 138.171C292.108 138.686 292.003 139.153 291.793 139.573C291.586 139.994 291.265 140.329 290.83 140.579C290.395 140.826 289.838 140.95 289.159 140.95H287.046V140.012H289.125C289.594 140.012 289.971 139.931 290.255 139.769C290.539 139.607 290.745 139.389 290.873 139.113C291.003 138.835 291.069 138.521 291.069 138.171C291.069 137.822 291.003 137.509 290.873 137.234C290.745 136.958 290.537 136.742 290.25 136.586C289.963 136.427 289.583 136.347 289.108 136.347H287.25V144.137H286.194ZM293.674 144.137V137.592H294.646V138.58H294.714C294.833 138.257 295.049 137.994 295.362 137.792C295.674 137.59 296.027 137.489 296.419 137.489C296.493 137.489 296.585 137.491 296.696 137.494C296.806 137.497 296.89 137.501 296.947 137.507V138.529C296.913 138.521 296.835 138.508 296.713 138.491C296.593 138.471 296.467 138.461 296.333 138.461C296.015 138.461 295.731 138.528 295.481 138.661C295.234 138.792 295.038 138.974 294.893 139.207C294.751 139.437 294.68 139.7 294.68 139.995V144.137H293.674ZM300.599 144.274C300.008 144.274 299.49 144.133 299.044 143.852C298.6 143.57 298.254 143.177 298.004 142.671C297.757 142.166 297.633 141.575 297.633 140.899C297.633 140.217 297.757 139.622 298.004 139.113C298.254 138.605 298.6 138.21 299.044 137.928C299.49 137.647 300.008 137.507 300.599 137.507C301.19 137.507 301.707 137.647 302.15 137.928C302.596 138.21 302.943 138.605 303.19 139.113C303.44 139.622 303.565 140.217 303.565 140.899C303.565 141.575 303.44 142.166 303.19 142.671C302.943 143.177 302.596 143.57 302.15 143.852C301.707 144.133 301.19 144.274 300.599 144.274ZM300.599 143.37C301.048 143.37 301.417 143.255 301.707 143.025C301.997 142.795 302.211 142.492 302.35 142.117C302.49 141.742 302.559 141.336 302.559 140.899C302.559 140.461 302.49 140.053 302.35 139.676C302.211 139.298 301.997 138.992 301.707 138.759C301.417 138.526 301.048 138.41 300.599 138.41C300.15 138.41 299.781 138.526 299.491 138.759C299.201 138.992 298.987 139.298 298.848 139.676C298.708 140.053 298.639 140.461 298.639 140.899C298.639 141.336 298.708 141.742 298.848 142.117C298.987 142.492 299.201 142.795 299.491 143.025C299.781 143.255 300.15 143.37 300.599 143.37ZM307.572 144.274C307.026 144.274 306.545 144.136 306.127 143.86C305.71 143.582 305.383 143.19 305.147 142.684C304.911 142.176 304.793 141.575 304.793 140.882C304.793 140.194 304.911 139.597 305.147 139.092C305.383 138.586 305.711 138.195 306.131 137.92C306.552 137.644 307.038 137.507 307.589 137.507C308.015 137.507 308.352 137.578 308.599 137.72C308.849 137.859 309.039 138.018 309.17 138.197C309.303 138.373 309.407 138.518 309.481 138.632H309.566V135.41H310.572V144.137H309.6V143.132H309.481C309.407 143.251 309.302 143.401 309.165 143.583C309.029 143.762 308.835 143.923 308.582 144.065C308.329 144.204 307.992 144.274 307.572 144.274ZM307.708 143.37C308.112 143.37 308.452 143.265 308.731 143.055C309.009 142.842 309.221 142.548 309.366 142.173C309.511 141.795 309.583 141.359 309.583 140.864C309.583 140.376 309.512 139.948 309.37 139.582C309.228 139.212 309.018 138.926 308.739 138.721C308.461 138.514 308.117 138.41 307.708 138.41C307.282 138.41 306.927 138.519 306.643 138.738C306.362 138.954 306.15 139.248 306.008 139.62C305.869 139.989 305.799 140.404 305.799 140.864C305.799 141.33 305.87 141.754 306.012 142.134C306.157 142.512 306.37 142.813 306.651 143.038C306.935 143.259 307.288 143.37 307.708 143.37ZM316.678 141.461V137.592H317.684V144.137H316.678V143.029H316.61C316.457 143.362 316.218 143.644 315.894 143.877C315.57 144.107 315.161 144.222 314.667 144.222C314.258 144.222 313.894 144.133 313.576 143.954C313.258 143.772 313.008 143.499 312.826 143.136C312.644 142.769 312.553 142.308 312.553 141.751V137.592H313.559V141.683C313.559 142.16 313.692 142.541 313.96 142.825C314.229 143.109 314.573 143.251 314.991 143.251C315.241 143.251 315.495 143.187 315.754 143.059C316.015 142.931 316.234 142.735 316.41 142.471C316.589 142.207 316.678 141.87 316.678 141.461ZM322.185 144.274C321.571 144.274 321.043 144.129 320.6 143.839C320.157 143.549 319.816 143.15 319.577 142.641C319.338 142.133 319.219 141.552 319.219 140.899C319.219 140.234 319.341 139.647 319.586 139.139C319.833 138.627 320.176 138.228 320.617 137.941C321.06 137.651 321.577 137.507 322.168 137.507C322.628 137.507 323.043 137.592 323.412 137.762C323.782 137.933 324.084 138.171 324.32 138.478C324.556 138.785 324.702 139.143 324.759 139.552H323.753C323.676 139.254 323.506 138.989 323.242 138.759C322.98 138.526 322.628 138.41 322.185 138.41C321.793 138.41 321.449 138.512 321.154 138.717C320.861 138.918 320.632 139.204 320.468 139.573C320.306 139.94 320.225 140.37 320.225 140.864C320.225 141.37 320.304 141.811 320.463 142.186C320.625 142.561 320.853 142.852 321.145 143.059C321.441 143.266 321.787 143.37 322.185 143.37C322.446 143.37 322.684 143.325 322.897 143.234C323.11 143.143 323.29 143.012 323.438 142.842C323.586 142.671 323.691 142.467 323.753 142.228H324.759C324.702 142.614 324.561 142.962 324.337 143.272C324.115 143.579 323.821 143.823 323.455 144.005C323.091 144.184 322.668 144.274 322.185 144.274ZM329.076 137.592V138.444H325.684V137.592H329.076ZM326.672 136.024H327.678V142.262C327.678 142.546 327.719 142.759 327.801 142.901C327.887 143.041 327.995 143.134 328.125 143.183C328.259 143.228 328.4 143.251 328.547 143.251C328.658 143.251 328.749 143.245 328.82 143.234C328.891 143.22 328.948 143.208 328.99 143.2L329.195 144.103C329.127 144.129 329.032 144.154 328.909 144.18C328.787 144.208 328.632 144.222 328.445 144.222C328.161 144.222 327.882 144.161 327.61 144.039C327.34 143.917 327.115 143.731 326.936 143.481C326.76 143.231 326.672 142.916 326.672 142.535V136.024ZM336.674 144.257C336.174 144.257 335.723 144.157 335.323 143.958C334.922 143.759 334.601 143.487 334.36 143.14C334.118 142.793 333.986 142.399 333.963 141.955H334.986C335.026 142.35 335.205 142.677 335.523 142.936C335.844 143.191 336.228 143.319 336.674 143.319C337.032 143.319 337.35 143.235 337.628 143.068C337.909 142.9 338.13 142.67 338.289 142.377C338.451 142.082 338.532 141.748 338.532 141.376C338.532 140.995 338.448 140.656 338.28 140.357C338.115 140.056 337.888 139.819 337.598 139.646C337.309 139.472 336.978 139.384 336.605 139.382C336.338 139.379 336.064 139.42 335.783 139.505C335.502 139.587 335.27 139.694 335.088 139.825L334.1 139.705L334.628 135.41H339.162V136.347H335.515L335.208 138.921H335.259C335.438 138.779 335.662 138.661 335.932 138.568C336.202 138.474 336.483 138.427 336.776 138.427C337.31 138.427 337.786 138.555 338.203 138.811C338.624 139.063 338.953 139.41 339.192 139.85C339.434 140.291 339.554 140.793 339.554 141.359C339.554 141.916 339.429 142.413 339.179 142.85C338.932 143.285 338.591 143.629 338.157 143.882C337.722 144.132 337.228 144.257 336.674 144.257Z" fill="#4F4F4F"/>
<rect x="255.137" y="136.137" width="21" height="8" fill="#1DDD8D"/>
<path d="M286.194 45.1372V36.4099H289.142C289.827 36.4099 290.387 36.5335 290.821 36.7807C291.259 37.025 291.583 37.356 291.793 37.7736C292.003 38.1912 292.108 38.6571 292.108 39.1713C292.108 39.6855 292.003 40.1528 291.793 40.5733C291.586 40.9937 291.265 41.329 290.83 41.579C290.395 41.8261 289.838 41.9497 289.159 41.9497H287.046V41.0122H289.125C289.594 41.0122 289.971 40.9312 290.255 40.7693C290.539 40.6074 290.745 40.3886 290.873 40.1131C291.003 39.8347 291.069 39.5207 291.069 39.1713C291.069 38.8219 291.003 38.5094 290.873 38.2338C290.745 37.9582 290.537 37.7423 290.25 37.5861C289.963 37.427 289.583 37.3474 289.108 37.3474H287.25V45.1372H286.194ZM293.674 45.1372V38.5918H294.646V39.5804H294.714C294.833 39.2565 295.049 38.9937 295.362 38.792C295.674 38.5903 296.027 38.4895 296.419 38.4895C296.493 38.4895 296.585 38.4909 296.696 38.4937C296.806 38.4966 296.89 38.5008 296.947 38.5065V39.5293C296.913 39.5207 296.835 39.5079 296.713 39.4909C296.593 39.471 296.467 39.4611 296.333 39.4611C296.015 39.4611 295.731 39.5278 295.481 39.6614C295.234 39.792 295.038 39.9739 294.893 40.2068C294.751 40.4369 294.68 40.6997 294.68 40.9952V45.1372H293.674ZM300.599 45.2736C300.008 45.2736 299.49 45.1329 299.044 44.8517C298.6 44.5704 298.254 44.177 298.004 43.6713C297.757 43.1656 297.633 42.5747 297.633 41.8986C297.633 41.2168 297.757 40.6216 298.004 40.1131C298.254 39.6045 298.6 39.2097 299.044 38.9284C299.49 38.6472 300.008 38.5065 300.599 38.5065C301.19 38.5065 301.707 38.6472 302.15 38.9284C302.596 39.2097 302.943 39.6045 303.19 40.1131C303.44 40.6216 303.565 41.2168 303.565 41.8986C303.565 42.5747 303.44 43.1656 303.19 43.6713C302.943 44.177 302.596 44.5704 302.15 44.8517C301.707 45.1329 301.19 45.2736 300.599 45.2736ZM300.599 44.3702C301.048 44.3702 301.417 44.2551 301.707 44.025C301.997 43.7949 302.211 43.4923 302.35 43.1173C302.49 42.7423 302.559 42.3361 302.559 41.8986C302.559 41.4611 302.49 41.0534 302.35 40.6756C302.211 40.2977 301.997 39.9923 301.707 39.7594C301.417 39.5264 301.048 39.4099 300.599 39.4099C300.15 39.4099 299.781 39.5264 299.491 39.7594C299.201 39.9923 298.987 40.2977 298.848 40.6756C298.708 41.0534 298.639 41.4611 298.639 41.8986C298.639 42.3361 298.708 42.7423 298.848 43.1173C298.987 43.4923 299.201 43.7949 299.491 44.025C299.781 44.2551 300.15 44.3702 300.599 44.3702ZM307.572 45.2736C307.026 45.2736 306.545 45.1358 306.127 44.8602C305.71 44.5818 305.383 44.1898 305.147 43.6841C304.911 43.1756 304.793 42.5747 304.793 41.8815C304.793 41.194 304.911 40.5974 305.147 40.0918C305.383 39.5861 305.711 39.1954 306.131 38.9199C306.552 38.6443 307.038 38.5065 307.589 38.5065C308.015 38.5065 308.352 38.5775 308.599 38.7196C308.849 38.8588 309.039 39.0179 309.17 39.1969C309.303 39.373 309.407 39.5179 309.481 39.6315H309.566V36.4099H310.572V45.1372H309.6V44.1315H309.481C309.407 44.2508 309.302 44.4014 309.165 44.5832C309.029 44.7622 308.835 44.9227 308.582 45.0648C308.329 45.204 307.992 45.2736 307.572 45.2736ZM307.708 44.3702C308.112 44.3702 308.452 44.265 308.731 44.0548C309.009 43.8418 309.221 43.5477 309.366 43.1727C309.511 42.7949 309.583 42.3588 309.583 41.8645C309.583 41.3758 309.512 40.9483 309.37 40.5818C309.228 40.2125 309.018 39.9256 308.739 39.721C308.461 39.5136 308.117 39.4099 307.708 39.4099C307.282 39.4099 306.927 39.5193 306.643 39.7381C306.362 39.954 306.15 40.248 306.008 40.6202C305.869 40.9895 305.799 41.4043 305.799 41.8645C305.799 42.3304 305.87 42.7537 306.012 43.1344C306.157 43.5122 306.37 43.8133 306.651 44.0378C306.935 44.2594 307.288 44.3702 307.708 44.3702ZM316.678 42.4611V38.5918H317.684V45.1372H316.678V44.0293H316.61C316.457 44.3616 316.218 44.6443 315.894 44.8773C315.57 45.1074 315.161 45.2224 314.667 45.2224C314.258 45.2224 313.894 45.1329 313.576 44.954C313.258 44.7722 313.008 44.4994 312.826 44.1358C312.644 43.7693 312.553 43.3077 312.553 42.7508V38.5918H313.559V42.6827C313.559 43.1599 313.692 43.5406 313.96 43.8247C314.229 44.1088 314.573 44.2508 314.991 44.2508C315.241 44.2508 315.495 44.1869 315.754 44.0591C316.015 43.9312 316.234 43.7352 316.41 43.471C316.589 43.2068 316.678 42.8702 316.678 42.4611ZM322.185 45.2736C321.571 45.2736 321.043 45.1287 320.6 44.8389C320.157 44.5491 319.816 44.15 319.577 43.6415C319.338 43.1329 319.219 42.552 319.219 41.8986C319.219 41.2338 319.341 40.6472 319.586 40.1386C319.833 39.6273 320.176 39.2281 320.617 38.9412C321.06 38.6514 321.577 38.5065 322.168 38.5065C322.628 38.5065 323.043 38.5918 323.412 38.7622C323.782 38.9327 324.084 39.1713 324.32 39.4781C324.556 39.7849 324.702 40.1429 324.759 40.552H323.753C323.676 40.2537 323.506 39.9895 323.242 39.7594C322.98 39.5264 322.628 39.4099 322.185 39.4099C321.793 39.4099 321.449 39.5122 321.154 39.7168C320.861 39.9185 320.632 40.204 320.468 40.5733C320.306 40.9398 320.225 41.3702 320.225 41.8645C320.225 42.3702 320.304 42.8105 320.463 43.1855C320.625 43.5605 320.853 43.8517 321.145 44.0591C321.441 44.2665 321.787 44.3702 322.185 44.3702C322.446 44.3702 322.684 44.3247 322.897 44.2338C323.11 44.1429 323.29 44.0122 323.438 43.8418C323.586 43.6713 323.691 43.4668 323.753 43.2281H324.759C324.702 43.6145 324.561 43.9625 324.337 44.2722C324.115 44.579 323.821 44.8233 323.455 45.0051C323.091 45.1841 322.668 45.2736 322.185 45.2736ZM329.076 38.5918V39.444H325.684V38.5918H329.076ZM326.672 37.0236H327.678V43.2622C327.678 43.5463 327.719 43.7594 327.801 43.9014C327.887 44.0406 327.995 44.1344 328.125 44.1827C328.259 44.2281 328.4 44.2508 328.547 44.2508C328.658 44.2508 328.749 44.2452 328.82 44.2338C328.891 44.2196 328.948 44.2082 328.99 44.1997L329.195 45.1031C329.127 45.1287 329.032 45.1543 328.909 45.1798C328.787 45.2082 328.632 45.2224 328.445 45.2224C328.161 45.2224 327.882 45.1614 327.61 45.0392C327.34 44.917 327.115 44.731 326.936 44.481C326.76 44.231 326.672 43.9156 326.672 43.5349V37.0236ZM337.015 36.4099V45.1372H335.958V37.5179H335.907L333.776 38.9327V37.8588L335.958 36.4099H337.015Z" fill="#4F4F4F"/>
<rect x="255.137" y="37.1372" width="21" height="8" fill="#165BAA"/>
</svg>
