<svg width="40" height="40" viewBox="0 0 40 40" fill="none" xmlns="http://www.w3.org/2000/svg">
<rect width="40" height="40" rx="10" fill="#F56A3F"/>
<path d="M29.6261 24.3828L24.8768 22.0161L26.6673 19.4994C27.0847 18.9117 27.3037 18.2532 27.3043 17.5841V13.6C27.3043 12.1148 26.5348 10.6904 25.165 9.6402C23.7951 8.59 21.9372 8 20 8C18.0628 8 16.2049 8.59 14.8351 9.6402C13.4652 10.6904 12.6957 12.1148 12.6957 13.6V17.5841C12.6963 18.2533 12.9153 18.9117 13.3327 19.4994L15.1232 22.0161L10.3739 24.3828C9.64401 24.7451 9.04425 25.2419 8.62953 25.8278C8.21481 26.4137 7.99837 27.07 8.00001 27.7366V32H32V27.7366C32.0016 27.07 31.7852 26.4137 31.3705 25.8278C30.9557 25.2419 30.356 24.7451 29.6261 24.3828ZM29.913 30.4H10.087V27.7366C10.086 27.3366 10.2159 26.9428 10.4647 26.5913C10.7136 26.2397 11.0734 25.9417 11.5114 25.7243L17.8805 22.5503L15.1649 18.7333C14.9144 18.3807 14.783 17.9856 14.7826 17.5841V13.6C14.7826 12.5391 15.3323 11.5217 16.3108 10.7716C17.2892 10.0214 18.6163 9.6 20 9.6C21.3837 9.6 22.7108 10.0214 23.6893 10.7716C24.6677 11.5217 25.2174 12.5391 25.2174 13.6V17.5841C25.217 17.9856 25.0856 18.3807 24.8352 18.7333L22.1196 22.5503L28.4888 25.7243C28.9267 25.9417 29.2866 26.2398 29.5354 26.5913C29.7842 26.9429 29.914 27.3366 29.913 27.7366V30.4Z" fill="white"/>
</svg>
