<svg width="32" height="32" viewBox="0 0 32 32" fill="none" xmlns="http://www.w3.org/2000/svg">
<path d="M30.4999 10.8079C30.3142 10.8088 30.1308 10.7635 29.9637 10.6755L15.8768 2.86093L1.78991 10.6225C1.48934 10.7771 1.14459 10.7955 0.831507 10.6738C0.518421 10.5521 0.262642 10.3002 0.120439 9.97351C-0.0217648 9.64682 -0.0387442 9.27211 0.0732354 8.93181C0.185215 8.59151 0.416981 8.3135 0.717547 8.15894L15.8768 0L31.036 8.15894C31.3556 8.24008 31.6329 8.45477 31.8078 8.7565C31.9828 9.05824 32.0414 9.42275 31.9708 9.77108C31.9003 10.1194 31.7064 10.4236 31.4311 10.6176C31.1558 10.8117 30.8212 10.8801 30.4999 10.8079ZM9.78385 24.053H2.47232V32H9.78385V24.053ZM19.5326 24.053H12.221V32H19.5326V24.053ZM29.2813 24.053H21.9697V32H29.2813V24.053ZM24.4069 13.457H17.0954V21.404H24.4069V13.457ZM14.6582 13.457H7.34667V21.404H14.6582V13.457Z" fill="#F56A3F"/>
</svg>
