<svg width="40" height="40" viewBox="0 0 40 40" fill="none" xmlns="http://www.w3.org/2000/svg">
<rect y="0.000106812" width="40" height="40" rx="10" fill="#F56A3F"/>
<path d="M20.2 8.16667C20.2 8.275 20.13 8.33333 20 8.33333C19.87 8.33333 19.8 8.39166 19.8 8.5C19.8 8.60833 19.73 8.66667 19.6 8.66667C19.47 8.66667 19.4 8.725 19.4 8.83333C19.4 8.94167 19.33 9 19.2 9C19.07 9 19 9.05833 19 9.16667C19 9.275 18.93 9.33333 18.8 9.33333C18.67 9.33333 18.6 9.39167 18.6 9.5C18.6 9.60833 18.53 9.66667 18.4 9.66667C18.27 9.66667 18.2 9.725 18.2 9.83333C18.2 9.94167 18.13 10 18 10C17.87 10 17.8 10.0583 17.8 10.1667C17.8 10.275 17.73 10.3333 17.6 10.3333C17.47 10.3333 17.4 10.3917 17.4 10.5C17.4 10.6083 17.33 10.6667 17.2 10.6667C17.07 10.6667 17 10.725 17 10.8333C17 10.9417 16.93 11 16.8 11C16.67 11 16.6 11.0583 16.6 11.1667C16.6 11.275 16.53 11.3333 16.4 11.3333C16.27 11.3333 16.2 11.3917 16.2 11.5C16.2 11.6083 16.13 11.6667 16 11.6667C15.87 11.6667 15.8 11.725 15.8 11.8333C15.8 11.9417 15.73 12 15.6 12C15.47 12 15.4 12.0583 15.4 12.1667C15.4 12.275 15.33 12.3333 15.2 12.3333C15.07 12.3333 15 12.3917 15 12.5C15 12.6083 14.93 12.6667 14.8 12.6667C14.67 12.6667 14.6 12.725 14.6 12.8333C14.6 12.9417 14.53 13 14.4 13C14.27 13 14.2 13.0583 14.2 13.1667C14.2 13.275 14.13 13.3333 14 13.3333C13.82 13.3333 13.8 13.3917 13.8 14C13.8 14.6083 13.82 14.6667 14 14.6667C14.13 14.6667 14.2 14.725 14.2 14.8333C14.2 14.9833 14.27 15 15 15C15.73 15 15.8 14.9833 15.8 14.8333C15.8 14.725 15.87 14.6667 16 14.6667C16.13 14.6667 16.2 14.6083 16.2 14.5C16.2 14.3917 16.27 14.3333 16.4 14.3333C16.53 14.3333 16.6 14.275 16.6 14.1667C16.6 14.0583 16.67 14 16.8 14C16.93 14 17 13.9417 17 13.8333C17 13.725 17.07 13.6667 17.2 13.6667C17.33 13.6667 17.4 13.6083 17.4 13.5C17.4 13.3917 17.47 13.3333 17.6 13.3333C17.73 13.3333 17.8 13.275 17.8 13.1667C17.8 13.0583 17.87 13 18 13C18.13 13 18.2 12.9417 18.2 12.8333C18.2 12.725 18.27 12.6667 18.4 12.6667C18.53 12.6667 18.6 12.6083 18.6 12.5C18.6 12.3917 18.67 12.3333 18.8 12.3333C18.93 12.3333 19 12.275 19 12.1667C19 12.0583 19.07 12 19.2 12C19.33 12 19.4 11.9417 19.4 11.8333C19.4 11.725 19.47 11.6667 19.6 11.6667C19.8 11.6667 19.8 11.725 19.8 17.6667C19.8 23.6083 19.8 23.6667 19.6 23.6667C19.42 23.6667 19.4 23.725 19.4 24.1667C19.4 24.6083 19.38 24.6667 19.2 24.6667C19.02 24.6667 19 24.725 19 25.1667C19 25.6083 18.98 25.6667 18.8 25.6667C18.67 25.6667 18.6 25.725 18.6 25.8333C18.6 25.9417 18.53 26 18.4 26C18.23 26 18.2 26.0583 18.2 26.3333C18.2 26.6083 18.17 26.6667 18 26.6667C17.87 26.6667 17.8 26.725 17.8 26.8333C17.8 26.9417 17.73 27 17.6 27C17.47 27 17.4 27.0583 17.4 27.1667C17.4 27.275 17.33 27.3333 17.2 27.3333C17.07 27.3333 17 27.3917 17 27.5C17 27.6083 16.93 27.6667 16.8 27.6667C16.67 27.6667 16.6 27.725 16.6 27.8333C16.6 27.9417 16.53 28 16.4 28C16.27 28 16.2 28.0583 16.2 28.1667C16.2 28.275 16.13 28.3333 16 28.3333C15.87 28.3333 15.8 28.3917 15.8 28.5C15.8 28.6417 15.73 28.6667 15.4 28.6667C15.07 28.6667 15 28.6917 15 28.8333C15 28.9417 14.93 29 14.8 29C14.67 29 14.6 29.0583 14.6 29.1667C14.6 29.3167 14.53 29.3333 14 29.3333C13.47 29.3333 13.4 29.35 13.4 29.5C13.4 29.65 13.33 29.6667 12.8 29.6667C12.27 29.6667 12.2 29.6833 12.2 29.8333C12.2 29.9917 12.13 30 10.8 30C9.47 30 9.4 30.0083 9.4 30.1667C9.4 30.275 9.33 30.3333 9.2 30.3333C9.02 30.3333 9 30.3917 9 31C9 31.6083 9.02 31.6667 9.2 31.6667C9.33 31.6667 9.4 31.725 9.4 31.8333C9.4 31.9917 9.47 32 10.8 32C12.13 32 12.2 31.9917 12.2 31.8333C12.2 31.6833 12.27 31.6667 13 31.6667C13.73 31.6667 13.8 31.65 13.8 31.5C13.8 31.35 13.87 31.3333 14.4 31.3333C14.93 31.3333 15 31.3167 15 31.1667C15 31.025 15.07 31 15.4 31C15.73 31 15.8 30.975 15.8 30.8333C15.8 30.6917 15.87 30.6667 16.2 30.6667C16.53 30.6667 16.6 30.6417 16.6 30.5C16.6 30.3917 16.67 30.3333 16.8 30.3333C16.93 30.3333 17 30.275 17 30.1667C17 30.025 17.07 30 17.4 30C17.73 30 17.8 29.975 17.8 29.8333C17.8 29.725 17.87 29.6667 18 29.6667C18.13 29.6667 18.2 29.6083 18.2 29.5C18.2 29.3917 18.27 29.3333 18.4 29.3333C18.53 29.3333 18.6 29.275 18.6 29.1667C18.6 29.0583 18.67 29 18.8 29C18.93 29 19 28.9417 19 28.8333C19 28.725 19.07 28.6667 19.2 28.6667C19.33 28.6667 19.4 28.6083 19.4 28.5C19.4 28.3917 19.47 28.3333 19.6 28.3333C19.77 28.3333 19.8 28.275 19.8 28C19.8 27.725 19.83 27.6667 20 27.6667C20.13 27.6667 20.2 27.6083 20.2 27.5C20.2 27.3917 20.27 27.3333 20.4 27.3333C20.57 27.3333 20.6 27.275 20.6 27C20.6 26.725 20.63 26.6667 20.8 26.6667C20.97 26.6667 21 26.6083 21 26.3333C21 26.0583 21.03 26 21.2 26C21.38 26 21.4 25.9417 21.4 25.5C21.4 25.0583 21.42 25 21.6 25C21.78 25 21.8 24.9417 21.8 24.3333C21.8 23.725 21.82 23.6667 22 23.6667C22.2 23.6667 22.2 23.6083 22.2 17.6667C22.2 11.725 22.2 11.6667 22.4 11.6667C22.53 11.6667 22.6 11.725 22.6 11.8333C22.6 11.9417 22.67 12 22.8 12C22.93 12 23 12.0583 23 12.1667C23 12.275 23.07 12.3333 23.2 12.3333C23.33 12.3333 23.4 12.3917 23.4 12.5C23.4 12.6083 23.47 12.6667 23.6 12.6667C23.73 12.6667 23.8 12.725 23.8 12.8333C23.8 12.9417 23.87 13 24 13C24.13 13 24.2 13.0583 24.2 13.1667C24.2 13.275 24.27 13.3333 24.4 13.3333C24.53 13.3333 24.6 13.3917 24.6 13.5C24.6 13.6083 24.67 13.6667 24.8 13.6667C24.93 13.6667 25 13.725 25 13.8333C25 13.9417 25.07 14 25.2 14C25.33 14 25.4 14.0583 25.4 14.1667C25.4 14.275 25.47 14.3333 25.6 14.3333C25.73 14.3333 25.8 14.3917 25.8 14.5C25.8 14.6083 25.87 14.6667 26 14.6667C26.13 14.6667 26.2 14.725 26.2 14.8333C26.2 14.9833 26.27 15 27 15C27.73 15 27.8 14.9833 27.8 14.8333C27.8 14.725 27.87 14.6667 28 14.6667C28.18 14.6667 28.2 14.6083 28.2 14C28.2 13.3917 28.18 13.3333 28 13.3333C27.87 13.3333 27.8 13.275 27.8 13.1667C27.8 13.0583 27.73 13 27.6 13C27.47 13 27.4 12.9417 27.4 12.8333C27.4 12.725 27.33 12.6667 27.2 12.6667C27.07 12.6667 27 12.6083 27 12.5C27 12.3917 26.93 12.3333 26.8 12.3333C26.67 12.3333 26.6 12.275 26.6 12.1667C26.6 12.0583 26.53 12 26.4 12C26.27 12 26.2 11.9417 26.2 11.8333C26.2 11.725 26.13 11.6667 26 11.6667C25.87 11.6667 25.8 11.6083 25.8 11.5C25.8 11.3917 25.73 11.3333 25.6 11.3333C25.47 11.3333 25.4 11.275 25.4 11.1667C25.4 11.0583 25.33 11 25.2 11C25.07 11 25 10.9417 25 10.8333C25 10.725 24.93 10.6667 24.8 10.6667C24.67 10.6667 24.6 10.6083 24.6 10.5C24.6 10.3917 24.53 10.3333 24.4 10.3333C24.27 10.3333 24.2 10.275 24.2 10.1667C24.2 10.0583 24.13 10 24 10C23.87 10 23.8 9.94167 23.8 9.83333C23.8 9.725 23.73 9.66667 23.6 9.66667C23.47 9.66667 23.4 9.60833 23.4 9.5C23.4 9.39167 23.33 9.33333 23.2 9.33333C23.07 9.33333 23 9.275 23 9.16667C23 9.05833 22.93 9 22.8 9C22.67 9 22.6 8.94167 22.6 8.83333C22.6 8.725 22.53 8.66667 22.4 8.66667C22.27 8.66667 22.2 8.60833 22.2 8.5C22.2 8.39166 22.13 8.33333 22 8.33333C21.87 8.33333 21.8 8.275 21.8 8.16667C21.8 8.01666 21.73 8 21 8C20.27 8 20.2 8.01666 20.2 8.16667Z" fill="white"/>
<path d="M23.3996 26.6667C23.3996 26.9417 23.3696 27 23.1996 27C23.0296 27 22.9996 27.0583 22.9996 27.3333C22.9996 27.6083 22.9696 27.6667 22.7996 27.6667C22.6196 27.6667 22.5996 27.725 22.5996 28.1667C22.5996 28.6083 22.6196 28.6667 22.7996 28.6667C22.9296 28.6667 22.9996 28.725 22.9996 28.8333C22.9996 28.9417 23.0696 29 23.1996 29C23.3296 29 23.3996 29.0583 23.3996 29.1667C23.3996 29.275 23.4696 29.3333 23.5996 29.3333C23.7296 29.3333 23.7996 29.3917 23.7996 29.5C23.7996 29.6083 23.8696 29.6667 23.9996 29.6667C24.1296 29.6667 24.1996 29.725 24.1996 29.8333C24.1996 29.975 24.2696 30 24.5996 30C24.9296 30 24.9996 30.025 24.9996 30.1667C24.9996 30.275 25.0696 30.3333 25.1996 30.3333C25.3296 30.3333 25.3996 30.3917 25.3996 30.5C25.3996 30.6417 25.4696 30.6667 25.7996 30.6667C26.1296 30.6667 26.1996 30.6917 26.1996 30.8333C26.1996 30.975 26.2696 31 26.5996 31C26.9296 31 26.9996 31.025 26.9996 31.1667C26.9996 31.3167 27.0696 31.3333 27.5996 31.3333C28.1296 31.3333 28.1996 31.35 28.1996 31.5C28.1996 31.65 28.2696 31.6667 28.9996 31.6667C29.7296 31.6667 29.7996 31.6833 29.7996 31.8333C29.7996 31.9917 29.8696 32 31.1996 32C32.5296 32 32.5996 31.9917 32.5996 31.8333C32.5996 31.725 32.6696 31.6667 32.7996 31.6667C32.9796 31.6667 32.9996 31.6083 32.9996 31C32.9996 30.3917 32.9796 30.3333 32.7996 30.3333C32.6696 30.3333 32.5996 30.275 32.5996 30.1667C32.5996 30.0083 32.5296 30 31.1996 30C29.8696 30 29.7996 29.9917 29.7996 29.8333C29.7996 29.6833 29.7296 29.6667 29.1996 29.6667C28.6696 29.6667 28.5996 29.65 28.5996 29.5C28.5996 29.35 28.5296 29.3333 27.9996 29.3333C27.4696 29.3333 27.3996 29.3167 27.3996 29.1667C27.3996 29.0583 27.3296 29 27.1996 29C27.0696 29 26.9996 28.9417 26.9996 28.8333C26.9996 28.6917 26.9296 28.6667 26.5996 28.6667C26.2696 28.6667 26.1996 28.6417 26.1996 28.5C26.1996 28.3917 26.1296 28.3333 25.9996 28.3333C25.8696 28.3333 25.7996 28.275 25.7996 28.1667C25.7996 28.0583 25.7296 28 25.5996 28C25.4696 28 25.3996 27.9417 25.3996 27.8333C25.3996 27.725 25.3296 27.6667 25.1996 27.6667C25.0696 27.6667 24.9996 27.6083 24.9996 27.5C24.9996 27.3917 24.9296 27.3333 24.7996 27.3333C24.6696 27.3333 24.5996 27.275 24.5996 27.1667C24.5996 27.0583 24.5296 27 24.3996 27C24.2696 27 24.1996 26.9417 24.1996 26.8333C24.1996 26.725 24.1296 26.6667 23.9996 26.6667C23.8696 26.6667 23.7996 26.6083 23.7996 26.5C23.7996 26.3917 23.7296 26.3333 23.5996 26.3333C23.4296 26.3333 23.3996 26.3917 23.3996 26.6667Z" fill="white"/>
</svg>
