<svg width="30" height="24" viewBox="0 0 30 24" fill="none" xmlns="http://www.w3.org/2000/svg">
<path d="M12.0989 0.264099C12.0238 0.436924 11.9487 3.25151 11.9236 6.51051L11.8485 12.4113L10.772 12.6088C9.26977 12.8557 7.09159 13.8926 5.73962 14.979C4.71312 15.8184 4.41269 15.9172 2.33465 16.1394L0.0813687 16.3863L0.00625913 20.065C-0.0187774 22.0895 0.0312956 23.8425 0.156478 23.9659C0.256624 24.0647 0.807428 23.9412 1.35823 23.6943C3.98706 22.4352 5.51429 22.0895 8.4686 22.0895C11.0223 22.0648 11.5982 22.1389 13.6011 22.8055C15.5539 23.4474 16.2049 23.5462 18.4832 23.5462C21.4125 23.5215 23.115 23.1512 26.4949 21.8179C29.5744 20.5835 30.6259 19.2996 29.5493 17.9911C28.8984 17.201 27.4963 17.1269 24.517 17.7195C21.2623 18.3614 17.632 18.4108 16.3551 17.8183C15.8794 17.596 15.4788 17.3245 15.4788 17.201C15.4788 17.1023 16.3801 17.0035 17.4817 17.0035C19.3344 17.0035 19.5347 16.9541 20.3109 16.2628L21.1871 15.5221H25.5936H30L29.9499 7.79436L29.8748 0.0912724L21.0369 0.0172043C14.1018 -0.0321732 12.174 0.0172043 12.0989 0.264099ZM17.9825 3.91813L18.1077 7.0043H20.9869H23.8661L23.9912 3.91813L24.1164 0.831955H26.6201H29.1237V7.74498V14.658L25.1429 14.7321C21.2372 14.7815 21.1621 14.7815 20.5612 14.1889C20.1607 13.7692 19.5598 13.547 18.6585 13.4235C17.9324 13.3248 16.5304 13.0532 15.5039 12.7816C14.4774 12.5347 13.4258 12.3125 13.1755 12.3125C12.7498 12.3125 12.7248 11.9422 12.7248 6.68334C12.7248 3.57248 12.7999 0.955402 12.9001 0.856644C13.0002 0.757887 14.1519 0.733198 15.4788 0.757887L17.8573 0.831955L17.9825 3.91813ZM23.2401 3.67123V6.38707H20.9869H18.7336V3.67123V0.955402H20.9869H23.2401V3.67123ZM15.604 13.6704C16.305 13.8433 17.3566 14.0655 17.9825 14.1642C18.6084 14.2383 19.2844 14.3864 19.5347 14.4358C20.1607 14.6086 20.3109 15.2999 19.8352 15.7937C19.4847 16.1888 19.034 16.2628 16.956 16.2628C15.5289 16.2628 14.4273 16.3616 14.3522 16.5097C14.0768 16.9541 14.9781 18.0158 16.0547 18.5096C17.5068 19.1515 21.3123 19.1268 24.492 18.4849C27.3712 17.8923 28.3476 17.8676 28.8483 18.3614C29.4242 18.9293 28.9985 19.744 27.7718 20.4106C26.0442 21.3735 22.5642 22.4352 20.1106 22.7314C17.6069 23.0524 16.956 22.9536 12.4995 21.7192C9.47006 20.8797 5.314 21.176 2.30962 22.4352C1.68371 22.7067 1.05779 22.929 0.93261 22.929C0.607135 22.929 0.632172 17.3245 0.957647 17.1269C1.10787 17.0282 2.05925 16.9047 3.06071 16.8307C4.53787 16.7072 5.06363 16.5591 5.63947 16.09C8.84415 13.3495 11.6983 12.6582 15.604 13.6704Z" fill="#494A59"/>
</svg>
