<svg width="24" height="30" viewBox="0 0 24 30" fill="none" xmlns="http://www.w3.org/2000/svg">
<path d="M9.724 0.3566C8.10839 0.96054 7.09562 1.74063 6.27576 3.024C5.33533 4.48353 5.02185 5.51526 5.02185 7.35224C5.02185 10.2461 6.83037 12.9387 9.43464 13.9453C9.86868 14.0962 10.9779 14.2472 11.9183 14.2472C13.2687 14.2724 13.8474 14.1466 14.8602 13.6181C18.9354 11.5043 20.0205 5.91788 17.0063 2.52072C15.0531 0.306272 12.1595 -0.549312 9.724 0.3566ZM14.1368 2.16842C16.0418 3.20015 17.0786 5.01197 17.0786 7.27675C17.0545 10.3971 14.7879 12.7625 11.846 12.7625C8.71123 12.7374 6.15519 9.69251 6.56512 6.49666C6.83037 4.53385 8.37364 2.49555 10.0857 1.86645C10.9779 1.53932 13.2687 1.71547 14.1368 2.16842Z" fill="#000"/>
<path d="M4.41908 14.9015C3.14105 15.3544 1.57367 17.1914 0.946718 18.9278C0.295651 20.7144 -0.162507 24.1619 0.0545151 25.6214C0.271537 27.1564 1.23608 28.6915 2.46587 29.4212C3.45453 30 3.47865 30 12.0149 30H20.5752L21.7326 29.2954C23.7099 28.0875 24.3128 26.1247 23.8546 22.4507C23.2277 17.6947 21.4915 15.0776 18.622 14.6247C17.6574 14.4737 17.3922 14.5744 15.9213 15.5054C12.8588 17.4179 10.6163 17.3424 7.52973 15.1531C6.54107 14.4485 5.81766 14.3982 4.41908 14.9015ZM8.13257 17.3424C9.98932 18.349 10.3028 18.4245 12.0149 18.4245C13.7269 18.4245 14.0404 18.349 15.8971 17.3424C18.1397 16.1849 18.4773 16.1094 19.4901 16.663C21.178 17.5689 22.1426 19.9847 22.3355 23.7593L22.456 26.3512L21.4674 27.3578L20.5028 28.3643H12.0149H3.52687L2.58644 27.3829L1.64601 26.4015V24.2877C1.64601 20.6641 2.65878 17.8709 4.37085 16.7888C5.45596 16.0842 5.84178 16.1345 8.13257 17.3424Z" fill="#000"/>
</svg>
