<svg width="42" height="43" viewBox="0 0 42 43" fill="none" xmlns="http://www.w3.org/2000/svg">
<path d="M16.6713 25.0963C18.2123 25.0963 19.7309 25.4633 21.0989 26.1696C22.4668 26.8759 23.7707 27.8079 24.6574 29.0626C23.4262 27.3328 21.6626 26.0492 19.6334 25.4059L18.3763 25.0074C18.3714 25.0059 18.3707 24.9992 18.3752 24.9967L19.5242 24.3514C20.6403 23.7245 21.5164 22.7472 22.0157 21.5723M16.6713 25.0963C15.1303 25.0963 13.6123 25.4678 12.2454 26.1762C10.881 26.8832 9.70727 27.9063 8.823 29.1591C10.0493 27.4244 11.6821 26.0442 13.7143 25.4064L14.9774 25.0099C14.9823 25.0084 14.983 25.0018 14.9786 24.9993L13.825 24.3514C12.7089 23.7245 11.8328 22.7472 11.3336 21.5723C10.8344 20.3973 10.7402 19.0908 11.0657 17.8569C11.3912 16.623 12.1182 15.5312 13.1329 14.752C14.1477 13.9729 15.3931 13.5503 16.6746 13.5503C17.9561 13.5503 19.2016 13.9729 20.2163 14.752C21.2311 15.5312 21.958 16.623 22.2835 17.8569C22.6091 19.0908 22.5149 20.3973 22.0157 21.5723M16.6713 25.0963C15.1753 25.0963 13.7438 24.3488 12.686 23.2957C11.6281 22.2426 11.0339 20.8143 11.0339 19.325C11.0339 18.2144 11.3647 17.1287 11.9845 16.2052C12.6043 15.2818 13.4853 14.5621 14.516 14.137C15.5467 13.712 16.6809 13.6008 17.7751 13.8175C18.8693 14.0342 19.8744 14.569 20.6632 15.3543C21.4521 16.1396 21.9893 17.1402 22.207 18.2295C22.4246 19.3188 22.4426 20.5462 22.0157 21.5723M16.6713 25.0963C17.787 25.0963 18.8808 24.6111 19.8085 23.994C20.7361 23.377 21.5887 22.5983 22.0157 21.5723M25.6394 25.0981C27.1797 25.0981 28.6975 25.4653 30.0648 26.1712C31.4321 26.8772 32.7355 27.8084 33.6221 29.0623C32.3973 27.3313 30.6368 26.0471 28.6097 25.406L27.352 25.0083C27.3471 25.0068 27.3464 25.0002 27.3509 24.9977L28.4999 24.3515C29.616 23.7239 30.4918 22.7458 30.9903 21.5701C31.4888 20.3945 31.582 19.0875 31.2553 17.8535C30.9285 16.6195 30.2003 15.5281 29.1844 14.7498C28.1685 13.9715 26.9214 13.708 25.6395 13.7096M25.6394 25.0981C25.6542 25.1128 25.6185 25.0981 25.6394 25.0981ZM25.6394 25.0981C25.6394 25.119 25.6246 25.0833 25.6394 25.0981ZM25.6394 25.0981C25.6246 25.1128 25.6394 25.0772 25.6394 25.0981ZM25.6394 25.0981C25.6184 25.0981 25.6543 25.0833 25.6394 25.0981ZM25.6394 25.0981C27.1354 25.0981 28.5703 24.3488 29.6282 23.2957C30.686 22.2426 31.2803 20.8143 31.2803 19.325C31.2803 17.8357 30.686 16.4074 29.6282 15.3543C28.5703 14.3012 27.1356 13.7096 25.6395 13.7096M25.6395 13.7096C25.1242 13.7118 24.609 13.7812 24.1118 13.9161C24.6197 13.7695 25.1108 13.7076 25.6395 13.7096Z" stroke="#494A59" stroke-width="2" stroke-linecap="round" stroke-linejoin="round"/>
</svg>
