<svg width="20" height="23" viewBox="0 0 20 23" fill="none" xmlns="http://www.w3.org/2000/svg">
<path d="M18 11.5807C17.9 11.5807 17.7 11.6954 17.6 11.8101L16.6 12.9567L18.7 15.3645L19.7 14.2179C19.9 13.9886 19.9 13.53 19.7 13.3006L18.4 11.8101C18.3 11.6954 18.2 11.5807 18 11.5807ZM16.1 13.6446L10 20.5243V22.9321H12.1L18.2 15.9378L16.1 13.6446ZM18 0H10V6.87964H18V0ZM16 4.58643H12V2.29321H16V4.58643ZM10 17.2679V9.17286H18V9.28752C17.24 9.28752 16.57 9.74616 16.19 10.1933L15.07 11.4661H12V14.9862L10 17.2679ZM8 0H0V11.4661H8V0ZM6 9.17286H2V2.29321H6V9.17286ZM8 19.5611V13.7593H0V20.6389H8V19.5611ZM6 18.3457H2V16.0525H6V18.3457Z" fill="#292D32"/>
</svg>
