<svg width="30" height="30" viewBox="0 0 30 30" fill="none" xmlns="http://www.w3.org/2000/svg">
<path d="M7.73687 4.58515C3.80476 7.15434 0.423644 9.42127 0.223282 9.62278C-0.0522161 9.89985 -0.0772614 10.0258 0.173191 10.2777C0.423644 10.5296 0.699142 10.4792 1.47555 10.0258L2.47736 9.44646V19.1439C2.47736 28.2872 2.5024 28.8413 2.95322 29.3955L3.42908 30H14.975C25.6943 30 26.5459 29.9748 26.9466 29.5466C27.3724 29.1436 27.3974 28.3124 27.4726 19.295L27.5477 9.47165L28.5245 10.0258C29.3009 10.4792 29.5764 10.5296 29.8268 10.2777C30.0773 10.0258 30.0522 9.89985 29.7767 9.62278C29.3509 9.21977 15.576 0.152029 15.1503 0.000900269C15 -0.0494766 11.669 2.01595 7.73687 4.58515ZM20.8356 5.03853L26.2704 8.59006L26.2203 18.6653L26.1452 28.7406L24.5923 28.8162L23.0145 28.8917V22.7206V16.5243L22.4635 16.3984C22.1379 16.3228 18.5564 16.2976 14.4991 16.3228L7.11073 16.3984L7.0356 22.6451L6.98551 28.8917L5.40766 28.8162L3.85485 28.7406L3.80476 18.6653L3.72962 8.59006L9.31472 4.91259C12.3702 2.89754 15 1.2855 15.1252 1.36106C15.2755 1.41144 17.8301 3.07386 20.8356 5.03853ZM22.0127 23.1992V28.8665H21.2613H20.51V26.4988C20.51 23.9045 20.4599 23.8289 18.882 23.8289H18.0305L17.9553 21.3605L17.8802 18.9172H15H12.1198L12.0447 21.3605L11.9695 23.8289H11.118C9.54013 23.8289 9.49004 23.9045 9.49004 26.4988V28.8665H8.73868H7.98732V23.1992V17.5319H15H22.0127V23.1992ZM17.0036 21.9398V23.8289H15H12.9964V21.9398V20.0507H15H17.0036V21.9398ZM14.4991 26.9774V28.8665H12.4955H10.4918V26.9774V25.0883H12.4955H14.4991V26.9774ZM19.5082 26.9774V28.8665H17.5045H15.5009V26.9774V25.0883H17.5045H19.5082V26.9774Z" fill="#494A59"/>
<path d="M10.266 9.04345C9.6399 9.82429 10.5415 10.0006 15.1499 9.92504C19.4326 9.84947 19.633 9.82429 19.633 9.34571C19.633 8.86714 19.4326 8.84195 15.0998 8.76638C11.4682 8.71601 10.5165 8.76638 10.266 9.04345Z" fill="#494A59"/>
<path d="M10.1163 12.2423C9.71559 12.8721 10.467 12.998 15.0252 12.998C19.5834 12.998 19.7587 12.9728 19.7587 12.4942C19.7587 12.0157 19.5834 11.9905 15.0252 11.9905C12.1199 11.9905 10.2165 12.0912 10.1163 12.2423Z" fill="#494A59"/>
</svg>
