<svg width="378" height="304" viewBox="0 0 378 304" fill="none" xmlns="http://www.w3.org/2000/svg">
<path d="M317.858 63.7998V55.0725H320.806C321.491 55.0725 322.051 55.1961 322.485 55.4433C322.923 55.6876 323.247 56.0186 323.457 56.4362C323.667 56.8538 323.772 57.3197 323.772 57.8339C323.772 58.3481 323.667 58.8154 323.457 59.2359C323.25 59.6563 322.929 59.9916 322.494 60.2416C322.059 60.4887 321.502 60.6123 320.824 60.6123H318.71V59.6748H320.789C321.258 59.6748 321.635 59.5938 321.919 59.4319C322.203 59.27 322.409 59.0512 322.537 58.7757C322.667 58.4972 322.733 58.1833 322.733 57.8339C322.733 57.4845 322.667 57.172 322.537 56.8964C322.409 56.6208 322.201 56.4049 321.914 56.2487C321.627 56.0896 321.247 56.01 320.772 56.01H318.914V63.7998H317.858ZM325.338 63.7998V57.2543H326.31V58.243H326.378C326.498 57.9191 326.713 57.6563 327.026 57.4546C327.338 57.2529 327.691 57.1521 328.083 57.1521C328.157 57.1521 328.249 57.1535 328.36 57.1563C328.471 57.1592 328.554 57.1634 328.611 57.1691V58.1918C328.577 58.1833 328.499 58.1705 328.377 58.1535C328.257 58.1336 328.131 58.1237 327.998 58.1237C327.679 58.1237 327.395 58.1904 327.145 58.324C326.898 58.4546 326.702 58.6365 326.557 58.8694C326.415 59.0995 326.344 59.3623 326.344 59.6578V63.7998H325.338ZM332.263 63.9362C331.672 63.9362 331.154 63.7955 330.708 63.5143C330.265 63.233 329.918 62.8396 329.668 62.3339C329.421 61.8282 329.297 61.2373 329.297 60.5612C329.297 59.8793 329.421 59.2842 329.668 58.7757C329.918 58.2671 330.265 57.8722 330.708 57.591C331.154 57.3097 331.672 57.1691 332.263 57.1691C332.854 57.1691 333.371 57.3097 333.814 57.591C334.26 57.8722 334.607 58.2671 334.854 58.7757C335.104 59.2842 335.229 59.8793 335.229 60.5612C335.229 61.2373 335.104 61.8282 334.854 62.3339C334.607 62.8396 334.26 63.233 333.814 63.5143C333.371 63.7955 332.854 63.9362 332.263 63.9362ZM332.263 63.0328C332.712 63.0328 333.081 62.9177 333.371 62.6876C333.661 62.4575 333.875 62.1549 334.015 61.7799C334.154 61.4049 334.223 60.9987 334.223 60.5612C334.223 60.1237 334.154 59.716 334.015 59.3382C333.875 58.9603 333.661 58.6549 333.371 58.422C333.081 58.189 332.712 58.0725 332.263 58.0725C331.814 58.0725 331.445 58.189 331.155 58.422C330.865 58.6549 330.651 58.9603 330.512 59.3382C330.373 59.716 330.303 60.1237 330.303 60.5612C330.303 60.9987 330.373 61.4049 330.512 61.7799C330.651 62.1549 330.865 62.4575 331.155 62.6876C331.445 62.9177 331.814 63.0328 332.263 63.0328ZM339.236 63.9362C338.69 63.9362 338.209 63.7984 337.791 63.5228C337.374 63.2444 337.047 62.8524 336.811 62.3467C336.575 61.8382 336.457 61.2373 336.457 60.5441C336.457 59.8566 336.575 59.26 336.811 58.7543C337.047 58.2487 337.375 57.858 337.795 57.5825C338.216 57.3069 338.702 57.1691 339.253 57.1691C339.679 57.1691 340.016 57.2401 340.263 57.3822C340.513 57.5214 340.703 57.6805 340.834 57.8595C340.967 58.0356 341.071 58.1805 341.145 58.2941H341.23V55.0725H342.236V63.7998H341.264V62.7941H341.145C341.071 62.9134 340.966 63.064 340.83 63.2458C340.693 63.4248 340.499 63.5853 340.246 63.7274C339.993 63.8666 339.656 63.9362 339.236 63.9362ZM339.372 63.0328C339.776 63.0328 340.116 62.9276 340.395 62.7174C340.673 62.5044 340.885 62.2103 341.03 61.8353C341.175 61.4575 341.247 61.0214 341.247 60.5271C341.247 60.0384 341.176 59.6109 341.034 59.2444C340.892 58.8751 340.682 58.5882 340.403 58.3836C340.125 58.1762 339.781 58.0725 339.372 58.0725C338.946 58.0725 338.591 58.1819 338.307 58.4007C338.026 58.6166 337.814 58.9106 337.672 59.2828C337.533 59.6521 337.463 60.0669 337.463 60.5271C337.463 60.993 337.534 61.4163 337.676 61.797C337.821 62.1748 338.034 62.4759 338.315 62.7004C338.599 62.922 338.952 63.0328 339.372 63.0328ZM348.342 61.1237V57.2543H349.348V63.7998H348.342V62.6919H348.274C348.121 63.0242 347.882 63.3069 347.558 63.5399C347.234 63.77 346.825 63.885 346.331 63.885C345.922 63.885 345.558 63.7955 345.24 63.6166C344.922 63.4347 344.672 63.162 344.49 62.7984C344.308 62.4319 344.217 61.9703 344.217 61.4134V57.2543H345.223V61.3453C345.223 61.8225 345.357 62.2032 345.624 62.4873C345.893 62.7714 346.237 62.9134 346.655 62.9134C346.905 62.9134 347.159 62.8495 347.418 62.7217C347.679 62.5938 347.898 62.3978 348.074 62.1336C348.253 61.8694 348.342 61.5328 348.342 61.1237ZM353.849 63.9362C353.235 63.9362 352.707 63.7913 352.264 63.5015C351.821 63.2117 351.48 62.8126 351.241 62.3041C351.002 61.7955 350.883 61.2146 350.883 60.5612C350.883 59.8964 351.005 59.3097 351.25 58.8012C351.497 58.2899 351.841 57.8907 352.281 57.6038C352.724 57.314 353.241 57.1691 353.832 57.1691C354.292 57.1691 354.707 57.2544 355.076 57.4248C355.446 57.5953 355.748 57.8339 355.984 58.1407C356.22 58.4475 356.366 58.8055 356.423 59.2146H355.417C355.341 58.9163 355.17 58.6521 354.906 58.422C354.645 58.189 354.292 58.0725 353.849 58.0725C353.457 58.0725 353.113 58.1748 352.818 58.3793C352.525 58.5811 352.297 58.8666 352.132 59.2359C351.97 59.6024 351.889 60.0328 351.889 60.5271C351.889 61.0328 351.968 61.4731 352.127 61.8481C352.289 62.2231 352.517 62.5143 352.809 62.7217C353.105 62.9291 353.451 63.0328 353.849 63.0328C354.11 63.0328 354.348 62.9873 354.561 62.8964C354.774 62.8055 354.954 62.6748 355.102 62.5044C355.25 62.3339 355.355 62.1294 355.417 61.8907H356.423C356.366 62.2771 356.225 62.6251 356.001 62.9347C355.779 63.2416 355.485 63.4859 355.119 63.6677C354.755 63.8467 354.332 63.9362 353.849 63.9362ZM360.74 57.2543V58.1066H357.348V57.2543H360.74ZM358.336 55.6862H359.342V61.9248C359.342 62.2089 359.383 62.422 359.466 62.564C359.551 62.7032 359.659 62.797 359.789 62.8453C359.923 62.8907 360.064 62.9134 360.211 62.9134C360.322 62.9134 360.413 62.9078 360.484 62.8964C360.555 62.8822 360.612 62.8708 360.654 62.8623L360.859 63.7657C360.791 63.7913 360.696 63.8169 360.574 63.8424C360.451 63.8708 360.297 63.885 360.109 63.885C359.825 63.885 359.547 63.824 359.274 63.7018C359.004 63.5796 358.779 63.3936 358.6 63.1436C358.424 62.8936 358.336 62.5782 358.336 62.1975V55.6862ZM368.679 55.0725V63.7998H367.622V56.1805H367.571L365.44 57.5953V56.5214L367.622 55.0725H368.679Z" fill="#4F4F4F"/>
<rect x="286.801" y="55.7998" width="21" height="8" fill="#165BAA"/>
<path d="M317.858 88.7998V80.0725H320.806C321.491 80.0725 322.051 80.1961 322.485 80.4433C322.923 80.6876 323.247 81.0186 323.457 81.4362C323.667 81.8538 323.772 82.3197 323.772 82.8339C323.772 83.3481 323.667 83.8154 323.457 84.2359C323.25 84.6563 322.929 84.9916 322.494 85.2416C322.059 85.4887 321.502 85.6123 320.824 85.6123H318.71V84.6748H320.789C321.258 84.6748 321.635 84.5938 321.919 84.4319C322.203 84.27 322.409 84.0512 322.537 83.7757C322.667 83.4972 322.733 83.1833 322.733 82.8339C322.733 82.4845 322.667 82.172 322.537 81.8964C322.409 81.6208 322.201 81.4049 321.914 81.2487C321.627 81.0896 321.247 81.01 320.772 81.01H318.914V88.7998H317.858ZM325.338 88.7998V82.2543H326.31V83.243H326.378C326.498 82.9191 326.713 82.6563 327.026 82.4546C327.338 82.2529 327.691 82.1521 328.083 82.1521C328.157 82.1521 328.249 82.1535 328.36 82.1563C328.471 82.1592 328.554 82.1634 328.611 82.1691V83.1918C328.577 83.1833 328.499 83.1705 328.377 83.1535C328.257 83.1336 328.131 83.1237 327.998 83.1237C327.679 83.1237 327.395 83.1904 327.145 83.324C326.898 83.4546 326.702 83.6365 326.557 83.8694C326.415 84.0995 326.344 84.3623 326.344 84.6578V88.7998H325.338ZM332.263 88.9362C331.672 88.9362 331.154 88.7955 330.708 88.5143C330.265 88.233 329.918 87.8396 329.668 87.3339C329.421 86.8282 329.297 86.2373 329.297 85.5612C329.297 84.8793 329.421 84.2842 329.668 83.7757C329.918 83.2671 330.265 82.8722 330.708 82.591C331.154 82.3097 331.672 82.1691 332.263 82.1691C332.854 82.1691 333.371 82.3097 333.814 82.591C334.26 82.8722 334.607 83.2671 334.854 83.7757C335.104 84.2842 335.229 84.8793 335.229 85.5612C335.229 86.2373 335.104 86.8282 334.854 87.3339C334.607 87.8396 334.26 88.233 333.814 88.5143C333.371 88.7955 332.854 88.9362 332.263 88.9362ZM332.263 88.0328C332.712 88.0328 333.081 87.9177 333.371 87.6876C333.661 87.4575 333.875 87.1549 334.015 86.7799C334.154 86.4049 334.223 85.9987 334.223 85.5612C334.223 85.1237 334.154 84.716 334.015 84.3382C333.875 83.9603 333.661 83.6549 333.371 83.422C333.081 83.189 332.712 83.0725 332.263 83.0725C331.814 83.0725 331.445 83.189 331.155 83.422C330.865 83.6549 330.651 83.9603 330.512 84.3382C330.373 84.716 330.303 85.1237 330.303 85.5612C330.303 85.9987 330.373 86.4049 330.512 86.7799C330.651 87.1549 330.865 87.4575 331.155 87.6876C331.445 87.9177 331.814 88.0328 332.263 88.0328ZM339.236 88.9362C338.69 88.9362 338.209 88.7984 337.791 88.5228C337.374 88.2444 337.047 87.8524 336.811 87.3467C336.575 86.8382 336.457 86.2373 336.457 85.5441C336.457 84.8566 336.575 84.26 336.811 83.7543C337.047 83.2487 337.375 82.858 337.795 82.5825C338.216 82.3069 338.702 82.1691 339.253 82.1691C339.679 82.1691 340.016 82.2401 340.263 82.3822C340.513 82.5214 340.703 82.6805 340.834 82.8595C340.967 83.0356 341.071 83.1805 341.145 83.2941H341.23V80.0725H342.236V88.7998H341.264V87.7941H341.145C341.071 87.9134 340.966 88.064 340.83 88.2458C340.693 88.4248 340.499 88.5853 340.246 88.7274C339.993 88.8666 339.656 88.9362 339.236 88.9362ZM339.372 88.0328C339.776 88.0328 340.116 87.9276 340.395 87.7174C340.673 87.5044 340.885 87.2103 341.03 86.8353C341.175 86.4575 341.247 86.0214 341.247 85.5271C341.247 85.0384 341.176 84.6109 341.034 84.2444C340.892 83.8751 340.682 83.5882 340.403 83.3836C340.125 83.1762 339.781 83.0725 339.372 83.0725C338.946 83.0725 338.591 83.1819 338.307 83.4007C338.026 83.6166 337.814 83.9106 337.672 84.2828C337.533 84.6521 337.463 85.0669 337.463 85.5271C337.463 85.993 337.534 86.4163 337.676 86.797C337.821 87.1748 338.034 87.4759 338.315 87.7004C338.599 87.922 338.952 88.0328 339.372 88.0328ZM348.342 86.1237V82.2543H349.348V88.7998H348.342V87.6919H348.274C348.121 88.0242 347.882 88.3069 347.558 88.5399C347.234 88.77 346.825 88.885 346.331 88.885C345.922 88.885 345.558 88.7955 345.24 88.6166C344.922 88.4347 344.672 88.162 344.49 87.7984C344.308 87.4319 344.217 86.9703 344.217 86.4134V82.2543H345.223V86.3453C345.223 86.8225 345.357 87.2032 345.624 87.4873C345.893 87.7714 346.237 87.9134 346.655 87.9134C346.905 87.9134 347.159 87.8495 347.418 87.7217C347.679 87.5938 347.898 87.3978 348.074 87.1336C348.253 86.8694 348.342 86.5328 348.342 86.1237ZM353.849 88.9362C353.235 88.9362 352.707 88.7913 352.264 88.5015C351.821 88.2117 351.48 87.8126 351.241 87.3041C351.002 86.7955 350.883 86.2146 350.883 85.5612C350.883 84.8964 351.005 84.3097 351.25 83.8012C351.497 83.2899 351.841 82.8907 352.281 82.6038C352.724 82.314 353.241 82.1691 353.832 82.1691C354.292 82.1691 354.707 82.2544 355.076 82.4248C355.446 82.5953 355.748 82.8339 355.984 83.1407C356.22 83.4475 356.366 83.8055 356.423 84.2146H355.417C355.341 83.9163 355.17 83.6521 354.906 83.422C354.645 83.189 354.292 83.0725 353.849 83.0725C353.457 83.0725 353.113 83.1748 352.818 83.3793C352.525 83.5811 352.297 83.8666 352.132 84.2359C351.97 84.6024 351.889 85.0328 351.889 85.5271C351.889 86.0328 351.968 86.4731 352.127 86.8481C352.289 87.2231 352.517 87.5143 352.809 87.7217C353.105 87.9291 353.451 88.0328 353.849 88.0328C354.11 88.0328 354.348 87.9873 354.561 87.8964C354.774 87.8055 354.954 87.6748 355.102 87.5044C355.25 87.3339 355.355 87.1294 355.417 86.8907H356.423C356.366 87.2771 356.225 87.6251 356.001 87.9347C355.779 88.2416 355.485 88.4859 355.119 88.6677C354.755 88.8467 354.332 88.9362 353.849 88.9362ZM360.74 82.2543V83.1066H357.348V82.2543H360.74ZM358.336 80.6862H359.342V86.9248C359.342 87.2089 359.383 87.422 359.466 87.564C359.551 87.7032 359.659 87.797 359.789 87.8453C359.923 87.8907 360.064 87.9134 360.211 87.9134C360.322 87.9134 360.413 87.9078 360.484 87.8964C360.555 87.8822 360.612 87.8708 360.654 87.8623L360.859 88.7657C360.791 88.7913 360.696 88.8169 360.574 88.8424C360.451 88.8708 360.297 88.885 360.109 88.885C359.825 88.885 359.547 88.824 359.274 88.7018C359.004 88.5796 358.779 88.3936 358.6 88.1436C358.424 87.8936 358.336 87.5782 358.336 87.1975V80.6862ZM365.61 88.7998V88.0328L368.491 84.8793C368.829 84.51 369.108 84.189 369.326 83.9163C369.545 83.6407 369.707 83.3822 369.812 83.1407C369.92 82.8964 369.974 82.6407 369.974 82.3737C369.974 82.0669 369.9 81.8012 369.752 81.5768C369.608 81.3524 369.409 81.1791 369.156 81.0569C368.903 80.9347 368.619 80.8737 368.304 80.8737C367.968 80.8737 367.676 80.9433 367.426 81.0825C367.179 81.2188 366.987 81.4106 366.85 81.6578C366.717 81.9049 366.65 82.1947 366.65 82.5271H365.645C365.645 82.0157 365.762 81.5668 365.998 81.1805C366.234 80.7941 366.555 80.493 366.961 80.2771C367.37 80.0612 367.829 79.9532 368.338 79.9532C368.849 79.9532 369.302 80.0612 369.697 80.2771C370.092 80.493 370.402 80.7842 370.626 81.1507C370.85 81.5171 370.963 81.9248 370.963 82.3737C370.963 82.6947 370.904 83.0086 370.788 83.3154C370.674 83.6194 370.475 83.9589 370.191 84.3339C369.91 84.7061 369.52 85.1606 369.02 85.6975L367.059 87.7941V87.8623H371.116V88.7998H365.61Z" fill="#4F4F4F"/>
<rect x="286.801" y="80.7998" width="21" height="8" fill="#F765A3"/>
<path d="M317.858 112.8V104.073H320.806C321.491 104.073 322.051 104.196 322.485 104.443C322.923 104.688 323.247 105.019 323.457 105.436C323.667 105.854 323.772 106.32 323.772 106.834C323.772 107.348 323.667 107.815 323.457 108.236C323.25 108.656 322.929 108.992 322.494 109.242C322.059 109.489 321.502 109.612 320.824 109.612H318.71V108.675H320.789C321.258 108.675 321.635 108.594 321.919 108.432C322.203 108.27 322.409 108.051 322.537 107.776C322.667 107.497 322.733 107.183 322.733 106.834C322.733 106.484 322.667 106.172 322.537 105.896C322.409 105.621 322.201 105.405 321.914 105.249C321.627 105.09 321.247 105.01 320.772 105.01H318.914V112.8H317.858ZM325.338 112.8V106.254H326.31V107.243H326.378C326.498 106.919 326.713 106.656 327.026 106.455C327.338 106.253 327.691 106.152 328.083 106.152C328.157 106.152 328.249 106.153 328.36 106.156C328.471 106.159 328.554 106.163 328.611 106.169V107.192C328.577 107.183 328.499 107.171 328.377 107.153C328.257 107.134 328.131 107.124 327.998 107.124C327.679 107.124 327.395 107.19 327.145 107.324C326.898 107.455 326.702 107.636 326.557 107.869C326.415 108.1 326.344 108.362 326.344 108.658V112.8H325.338ZM332.263 112.936C331.672 112.936 331.154 112.796 330.708 112.514C330.265 112.233 329.918 111.84 329.668 111.334C329.421 110.828 329.297 110.237 329.297 109.561C329.297 108.879 329.421 108.284 329.668 107.776C329.918 107.267 330.265 106.872 330.708 106.591C331.154 106.31 331.672 106.169 332.263 106.169C332.854 106.169 333.371 106.31 333.814 106.591C334.26 106.872 334.607 107.267 334.854 107.776C335.104 108.284 335.229 108.879 335.229 109.561C335.229 110.237 335.104 110.828 334.854 111.334C334.607 111.84 334.26 112.233 333.814 112.514C333.371 112.796 332.854 112.936 332.263 112.936ZM332.263 112.033C332.712 112.033 333.081 111.918 333.371 111.688C333.661 111.457 333.875 111.155 334.015 110.78C334.154 110.405 334.223 109.999 334.223 109.561C334.223 109.124 334.154 108.716 334.015 108.338C333.875 107.96 333.661 107.655 333.371 107.422C333.081 107.189 332.712 107.073 332.263 107.073C331.814 107.073 331.445 107.189 331.155 107.422C330.865 107.655 330.651 107.96 330.512 108.338C330.373 108.716 330.303 109.124 330.303 109.561C330.303 109.999 330.373 110.405 330.512 110.78C330.651 111.155 330.865 111.457 331.155 111.688C331.445 111.918 331.814 112.033 332.263 112.033ZM339.236 112.936C338.69 112.936 338.209 112.798 337.791 112.523C337.374 112.244 337.047 111.852 336.811 111.347C336.575 110.838 336.457 110.237 336.457 109.544C336.457 108.857 336.575 108.26 336.811 107.754C337.047 107.249 337.375 106.858 337.795 106.582C338.216 106.307 338.702 106.169 339.253 106.169C339.679 106.169 340.016 106.24 340.263 106.382C340.513 106.521 340.703 106.68 340.834 106.859C340.967 107.036 341.071 107.18 341.145 107.294H341.23V104.073H342.236V112.8H341.264V111.794H341.145C341.071 111.913 340.966 112.064 340.83 112.246C340.693 112.425 340.499 112.585 340.246 112.727C339.993 112.867 339.656 112.936 339.236 112.936ZM339.372 112.033C339.776 112.033 340.116 111.928 340.395 111.717C340.673 111.504 340.885 111.21 341.03 110.835C341.175 110.457 341.247 110.021 341.247 109.527C341.247 109.038 341.176 108.611 341.034 108.244C340.892 107.875 340.682 107.588 340.403 107.384C340.125 107.176 339.781 107.073 339.372 107.073C338.946 107.073 338.591 107.182 338.307 107.401C338.026 107.617 337.814 107.911 337.672 108.283C337.533 108.652 337.463 109.067 337.463 109.527C337.463 109.993 337.534 110.416 337.676 110.797C337.821 111.175 338.034 111.476 338.315 111.7C338.599 111.922 338.952 112.033 339.372 112.033ZM348.342 110.124V106.254H349.348V112.8H348.342V111.692H348.274C348.121 112.024 347.882 112.307 347.558 112.54C347.234 112.77 346.825 112.885 346.331 112.885C345.922 112.885 345.558 112.796 345.24 112.617C344.922 112.435 344.672 112.162 344.49 111.798C344.308 111.432 344.217 110.97 344.217 110.413V106.254H345.223V110.345C345.223 110.823 345.357 111.203 345.624 111.487C345.893 111.771 346.237 111.913 346.655 111.913C346.905 111.913 347.159 111.85 347.418 111.722C347.679 111.594 347.898 111.398 348.074 111.134C348.253 110.869 348.342 110.533 348.342 110.124ZM353.849 112.936C353.235 112.936 352.707 112.791 352.264 112.502C351.821 112.212 351.48 111.813 351.241 111.304C351.002 110.796 350.883 110.215 350.883 109.561C350.883 108.896 351.005 108.31 351.25 107.801C351.497 107.29 351.841 106.891 352.281 106.604C352.724 106.314 353.241 106.169 353.832 106.169C354.292 106.169 354.707 106.254 355.076 106.425C355.446 106.595 355.748 106.834 355.984 107.141C356.22 107.448 356.366 107.805 356.423 108.215H355.417C355.341 107.916 355.17 107.652 354.906 107.422C354.645 107.189 354.292 107.073 353.849 107.073C353.457 107.073 353.113 107.175 352.818 107.379C352.525 107.581 352.297 107.867 352.132 108.236C351.97 108.602 351.889 109.033 351.889 109.527C351.889 110.033 351.968 110.473 352.127 110.848C352.289 111.223 352.517 111.514 352.809 111.722C353.105 111.929 353.451 112.033 353.849 112.033C354.11 112.033 354.348 111.987 354.561 111.896C354.774 111.805 354.954 111.675 355.102 111.504C355.25 111.334 355.355 111.129 355.417 110.891H356.423C356.366 111.277 356.225 111.625 356.001 111.935C355.779 112.242 355.485 112.486 355.119 112.668C354.755 112.847 354.332 112.936 353.849 112.936ZM360.74 106.254V107.107H357.348V106.254H360.74ZM358.336 104.686H359.342V110.925C359.342 111.209 359.383 111.422 359.466 111.564C359.551 111.703 359.659 111.797 359.789 111.845C359.923 111.891 360.064 111.913 360.211 111.913C360.322 111.913 360.413 111.908 360.484 111.896C360.555 111.882 360.612 111.871 360.654 111.862L360.859 112.766C360.791 112.791 360.696 112.817 360.574 112.842C360.451 112.871 360.297 112.885 360.109 112.885C359.825 112.885 359.547 112.824 359.274 112.702C359.004 112.58 358.779 112.394 358.6 112.144C358.424 111.894 358.336 111.578 358.336 111.198V104.686ZM368.559 112.919C367.997 112.919 367.495 112.823 367.055 112.629C366.618 112.436 366.27 112.168 366.011 111.824C365.755 111.477 365.616 111.075 365.593 110.618H366.667C366.69 110.899 366.787 111.142 366.957 111.347C367.127 111.548 367.35 111.705 367.626 111.815C367.902 111.926 368.207 111.982 368.542 111.982C368.917 111.982 369.25 111.916 369.539 111.786C369.829 111.655 370.056 111.473 370.221 111.24C370.386 111.007 370.468 110.737 370.468 110.43C370.468 110.109 370.389 109.827 370.23 109.582C370.071 109.335 369.838 109.142 369.531 109.003C369.224 108.864 368.849 108.794 368.406 108.794H367.707V107.857H368.406C368.752 107.857 369.056 107.794 369.318 107.669C369.582 107.544 369.788 107.368 369.936 107.141C370.086 106.913 370.162 106.646 370.162 106.34C370.162 106.044 370.096 105.787 369.966 105.568C369.835 105.35 369.65 105.179 369.412 105.057C369.176 104.935 368.897 104.874 368.576 104.874C368.275 104.874 367.991 104.929 367.724 105.04C367.46 105.148 367.244 105.305 367.076 105.513C366.909 105.717 366.818 105.965 366.804 106.254H365.781C365.798 105.797 365.936 105.396 366.194 105.053C366.453 104.706 366.791 104.436 367.208 104.243C367.629 104.05 368.091 103.953 368.593 103.953C369.133 103.953 369.596 104.063 369.983 104.281C370.369 104.497 370.666 104.783 370.873 105.138C371.081 105.493 371.184 105.877 371.184 106.288C371.184 106.78 371.055 107.199 370.797 107.546C370.541 107.892 370.193 108.132 369.752 108.266V108.334C370.304 108.425 370.734 108.659 371.044 109.037C371.353 109.412 371.508 109.877 371.508 110.43C371.508 110.905 371.379 111.331 371.12 111.709C370.865 112.084 370.515 112.379 370.072 112.595C369.629 112.811 369.125 112.919 368.559 112.919Z" fill="#4F4F4F"/>
<rect x="286.801" y="104.8" width="21" height="8" fill="#16BFD6"/>
<path d="M259 152C259 166.051 256.232 179.965 250.855 192.947C245.478 205.929 237.596 217.725 227.66 227.66L152 152H259Z" fill="#A155B9"/>
<path d="M228 228C216.296 239.704 202.048 248.546 186.365 253.838C170.683 259.13 153.99 260.729 137.588 258.509C121.186 256.29 105.518 250.312 91.8056 241.043C78.0934 231.773 66.7073 219.462 58.535 205.069C50.3626 190.675 45.6249 174.589 44.691 158.064C43.7571 141.539 46.6524 125.022 53.1511 109.799C59.6499 94.577 69.5764 81.0613 82.157 70.3058C94.7375 59.5502 109.632 51.8456 125.68 47.7923L152 152L228 228Z" fill="#16BFD6"/>
<path d="M124.182 48.1822C140.259 43.8745 157.116 43.3593 173.425 46.6771C189.735 49.9949 205.051 57.055 218.167 67.3012C231.283 77.5474 241.84 90.6996 249.007 105.721C256.173 120.743 259.753 137.224 259.464 153.865L152 152L124.182 48.1822Z" fill="#F765A3"/>
</svg>
