<svg width="240" height="309" viewBox="0 0 240 309" fill="none" xmlns="http://www.w3.org/2000/svg">
<path d="M204.474 170.8C204.474 183.519 202.289 196.114 198.044 207.866C193.798 219.617 187.576 230.294 179.732 239.289L120 170.8H204.474Z" fill="#A155B9"/>
<path d="M180 239.596C170.76 250.191 159.511 258.195 147.13 262.985C134.749 267.776 121.571 269.223 108.622 267.214C95.6728 265.205 83.3035 259.794 72.4781 251.403C61.6527 243.012 52.6636 231.867 46.2118 218.838C39.76 205.809 36.0196 191.248 35.2824 176.289C34.5451 161.33 36.8309 146.379 41.9614 132.599C47.092 118.82 54.9287 106.585 64.8608 96.8489C74.7928 87.1129 86.5517 80.1385 99.2207 76.4694L120 170.8L180 239.596Z" fill="#16BFD6"/>
<path d="M98.0385 76.822C110.73 72.9226 124.039 72.4562 136.915 75.4595C149.791 78.4628 161.883 84.8538 172.237 94.1288C182.592 103.404 190.926 115.309 196.584 128.907C202.242 142.505 205.068 157.424 204.84 172.488L120 170.8L98.0385 76.822Z" fill="#F765A3"/>
<path d="M131.77 7.482C131.817 6.54867 132.143 5.83 132.75 5.326C133.366 4.81267 134.173 4.556 135.172 4.556C135.853 4.556 136.437 4.67733 136.922 4.92C137.407 5.15333 137.771 5.47533 138.014 5.886C138.266 6.28733 138.392 6.74467 138.392 7.258C138.392 7.846 138.238 8.34533 137.93 8.756C137.631 9.15733 137.272 9.428 136.852 9.568V9.624C137.393 9.792 137.813 10.0907 138.112 10.52C138.42 10.9493 138.574 11.5 138.574 12.172C138.574 12.732 138.443 13.2313 138.182 13.67C137.93 14.1087 137.552 14.454 137.048 14.706C136.553 14.9487 135.956 15.07 135.256 15.07C134.201 15.07 133.343 14.804 132.68 14.272C132.017 13.74 131.667 12.956 131.63 11.92H133.534C133.553 12.3773 133.707 12.746 133.996 13.026C134.295 13.2967 134.701 13.432 135.214 13.432C135.69 13.432 136.054 13.3013 136.306 13.04C136.567 12.7693 136.698 12.424 136.698 12.004C136.698 11.444 136.521 11.0427 136.166 10.8C135.811 10.5573 135.261 10.436 134.514 10.436H134.108V8.826H134.514C135.839 8.826 136.502 8.38267 136.502 7.496C136.502 7.09467 136.381 6.782 136.138 6.558C135.905 6.334 135.564 6.222 135.116 6.222C134.677 6.222 134.337 6.34333 134.094 6.586C133.861 6.81933 133.725 7.118 133.688 7.482H131.77ZM146.619 6.278L142.895 15H140.907L144.659 6.502H139.871V4.822H146.619V6.278ZM147.709 13.012V11.472L152.287 4.92H154.569V11.304H155.801V13.012H154.569V15H152.609V13.012H147.709ZM152.735 7.02L149.865 11.304H152.735V7.02Z" fill="white"/>
</svg>
